<svg class="threeIcon" viewBox="0 0 285 172" version="1.1" xmlns="http://www.w3.org/2000/svg" xmlns:xlink="http://www.w3.org/1999/xlink"><!-- Generator: Sketch 52.4 (67378) - http://www.bohemiancoding.com/sketch --><title>three2</title><desc>Created with Sketch.</desc><defs><linearGradient x1="0%" y1="50.0010198%" x2="100%" y2="50.0010198%" id="linearGradient-1"><stop stop-color="#808080" stop-opacity="0.25" offset="0%"/><stop stop-color="#808080" stop-opacity="0.12" offset="54%"/><stop stop-color="#808080" stop-opacity="0.1" offset="100%"/></linearGradient><linearGradient x1="1.83026383e-13%" y1="50%" x2="100%" y2="50%" id="linearGradient-2"><stop stop-color="#808080" stop-opacity="0.25" offset="0%"/><stop stop-color="#808080" stop-opacity="0.12" offset="54%"/><stop stop-color="#808080" stop-opacity="0.1" offset="100%"/></linearGradient><linearGradient x1="-4.7330074e-13%" y1="50%" x2="100%" y2="50%" id="linearGradient-3"><stop stop-color="#808080" stop-opacity="0.25" offset="0%"/><stop stop-color="#808080" stop-opacity="0.12" offset="54%"/><stop stop-color="#808080" stop-opacity="0.1" offset="100%"/></linearGradient><linearGradient x1="50.0019157%" y1="100%" x2="50.0019157%" y2="-7.68154309e-15%" id="linearGradient-4"><stop stop-color="#808080" stop-opacity="0.25" offset="0%"/><stop stop-color="#808080" stop-opacity="0.12" offset="54%"/><stop stop-color="#808080" stop-opacity="0.1" offset="100%"/></linearGradient><linearGradient x1="50%" y1="100%" x2="50%" y2="0%" id="linearGradient-5"><stop stop-color="#808080" stop-opacity="0.25" offset="0%"/><stop stop-color="#808080" stop-opacity="0.12" offset="54%"/><stop stop-color="#808080" stop-opacity="0.1" offset="100%"/></linearGradient><linearGradient x1="50%" y1="100.042319%" x2="50%" y2="0.0423190859%" id="linearGradient-6"><stop stop-color="#808080" stop-opacity="0.25" offset="0%"/><stop stop-color="#808080" stop-opacity="0.12" offset="54%"/><stop stop-color="#808080" stop-opacity="0.1" offset="100%"/></linearGradient><linearGradient x1="49.9962502%" y1="100%" x2="49.9962502%" y2="0.809888927%" id="linearGradient-7"><stop stop-color="#808080" stop-opacity="0.25" offset="0%"/><stop stop-color="#808080" stop-opacity="0.12" offset="54%"/><stop stop-color="#808080" stop-opacity="0.1" offset="100%"/></linearGradient><linearGradient x1="49.9606758%" y1="100%" x2="49.9606758%" y2="0.10502694%" id="linearGradient-8"><stop stop-color="#808080" stop-opacity="0.25" offset="0%"/><stop stop-color="#808080" stop-opacity="0.12" offset="54%"/><stop stop-color="#808080" stop-opacity="0.1" offset="100%"/></linearGradient></defs><g id="About/Team" stroke="none" stroke-width="1" fill="none" fill-rule="evenodd"><g id="Landing" transform="translate(-218.000000, -2633.000000)"><g id="threeSection" transform="translate(-43.000000, 1576.000000)"><g id="three2" transform="translate(261.000000, 1057.000000)"><polygon id="Rectangle" fill="#F5F5F5" transform="translate(206.838127, 30.138290) rotate(-81.360000) translate(-206.838127, -30.138290) " points="203.679933 -44.592396 209.996321 -44.592396 209.996321 104.868975 203.679933 104.868975"/><polygon id="Rectangle" fill="url(#linearGradient-1)" transform="translate(198.913601, 84.029895) rotate(-81.360000) translate(-198.913601, -84.029895) " points="139.181159 6.14101532 258.646042 6.14101532 258.646042 161.918775 139.181159 161.918775"/><polygon id="Rectangle" fill="#F5F5F5" transform="translate(198.177160, 87.110537) rotate(-81.360000) translate(-198.177160, -87.110537) " points="143.707846 12.3798518 252.646474 12.3798518 252.646474 161.841223 143.707846 161.841223"/><circle id="Oval" fill="#FF5252" transform="translate(136.563410, 19.459578) rotate(-81.360000) translate(-136.563410, -19.459578) " cx="136.56341" cy="19.4595778" r="1.54414716"/><circle id="Oval" fill="#FFFF00" transform="translate(140.761098, 20.095622) rotate(-81.360000) translate(-140.761098, -20.095622) " cx="140.761098" cy="20.0956215" r="1.54414716"/><circle id="Oval" fill="#69F0AE" transform="translate(144.958786, 20.734843) rotate(-81.360000) translate(-144.958786, -20.734843) " cx="144.958786" cy="20.7348425" r="1.54414716"/><polygon id="Rectangle" fill="url(#linearGradient-2)" transform="translate(200.635088, 62.200611) rotate(-81.360000) translate(-200.635088, -62.200611) " points="180.899553 -4.89989049 220.370623 -4.89989049 220.370623 129.301113 180.899553 129.301113"/><polygon id="Rectangle" fill="#0079FF" transform="translate(200.753644, 62.350397) rotate(8.640000) translate(-200.753644, -62.350397) " points="135.100383 44.0621028 266.406905 44.0621028 266.406905 80.6386915 135.100383 80.6386915"/><polygon id="Rectangle" fill="url(#linearGradient-3)" transform="translate(155.522101, 94.600767) rotate(-81.360000) translate(-155.522101, -94.600767) " points="151.706215 90.1271879 159.337988 90.1271879 159.337988 99.0743451 151.706215 99.0743451"/><polygon id="Rectangle" fill="#0079FF" transform="translate(155.680465, 94.491616) rotate(8.640000) translate(-155.680465, -94.491616) " points="151.470599 91.333422 159.890331 91.333422 159.890331 97.64981 151.470599 97.64981"/><polygon id="Rectangle" fill="#FF5252" transform="translate(154.055271, 105.158110) rotate(8.640000) translate(-154.055271, -105.158110) " points="149.845405 101.999916 158.265138 101.999916 158.265138 108.316304 149.845405 108.316304"/><polygon id="Rectangle" fill="#FF9800" transform="translate(152.436396, 115.825081) rotate(8.640000) translate(-152.436396, -115.825081) " points="148.22653 112.666887 156.646262 112.666887 156.646262 118.983275 148.22653 118.983275"/><polygon id="Rectangle" fill="#0079FF" opacity="0.4" transform="translate(207.188407, 102.316965) rotate(8.640000) translate(-207.188407, -102.316965) " points="173.244177 100.475745 241.132638 100.475745 241.132638 104.158186 173.244177 104.158186"/><polygon id="Rectangle" fill="#0079FF" opacity="0.4" transform="translate(205.566355, 112.983937) rotate(8.640000) translate(-205.566355, -112.983937) " points="171.622124 111.142716 239.510586 111.142716 239.510586 114.825157 171.622124 114.825157"/><polygon id="Rectangle" fill="#0079FF" opacity="0.4" transform="translate(203.947479, 123.650908) rotate(8.640000) translate(-203.947479, -123.650908) " points="170.003249 121.809687 237.89171 121.809687 237.89171 125.492129 170.003249 125.492129"/><polygon id="Rectangle" fill="#F5F5F5" transform="translate(82.103291, 23.521274) rotate(-12.600000) translate(-82.103291, -23.521274) " points="2.53840809 20.4139157 161.668174 20.4139157 161.668174 26.6286314 2.53840809 26.6286314"/><polygon id="Rectangle" fill="url(#linearGradient-4)" transform="translate(94.067788, 75.769443) rotate(-12.600000) translate(-94.067788, -75.769443) " points="11.141367 16.9901783 176.99421 16.9901783 176.99421 134.548707 11.141367 134.548707"/><polygon id="Rectangle" fill="#F5F5F5" transform="translate(94.472612, 78.866756) rotate(-12.600000) translate(-94.472612, -78.866756) " points="14.9077292 25.2664218 174.037495 25.2664218 174.037495 132.467091 14.9077292 132.467091"/><ellipse id="Oval" fill="#FF5252" transform="translate(8.245751, 40.029736) rotate(-12.600000) translate(-8.245751, -40.029736) " cx="8.24575147" cy="40.0297358" rx="1.64264214" ry="1.5187291"/><ellipse id="Oval" fill="#FFFF00" transform="translate(12.658721, 39.046263) rotate(-12.600000) translate(-12.658721, -39.046263) " cx="12.6587206" cy="39.0462629" rx="1.64264214" ry="1.5187291"/><ellipse id="Oval" fill="#69F0AE" transform="translate(17.068589, 38.060306) rotate(-12.600000) translate(-17.068589, -38.060306) " cx="17.0685891" cy="38.0603059" rx="1.64264214" ry="1.5187291"/><polygon id="Rectangle" fill="url(#linearGradient-5)" transform="translate(87.739345, 55.165668) rotate(-12.600000) translate(-87.739345, -55.165668) " points="16.2987099 35.7446817 159.179981 35.7446817 159.179981 74.586655 16.2987099 74.586655"/><polygon id="Rectangle" fill="#0079FF" transform="translate(87.905144, 55.259226) rotate(-12.600000) translate(-87.905144, -55.259226) " points="18.0054783 37.2632395 157.804809 37.2632395 157.804809 73.2552128 18.0054783 73.2552128"/><polygon id="Rectangle" fill="url(#linearGradient-6)" transform="translate(54.788940, 101.664532) rotate(-12.600000) translate(-54.788940, -101.664532) " points="50.0262314 97.9106018 59.5516495 97.9106018 59.5516495 105.418461 50.0262314 105.418461"/><polygon id="Rectangle" fill="#0079FF" transform="translate(55.615987, 101.976749) rotate(-12.652557) translate(-55.615987, -101.976749) " points="51.1131938 98.8557489 60.1187795 98.8557489 60.1187795 105.097749 51.1131938 105.097749"/><polygon id="Rectangle" fill="#FF5252" transform="translate(57.213796, 111.868972) rotate(-12.600000) translate(-57.213796, -111.868972) " points="52.730686 108.761614 61.6969068 108.761614 61.6969068 114.97633 52.730686 114.97633"/><polygon id="Rectangle" fill="#FF9800" transform="translate(60.307779, 122.774441) rotate(-12.652557) translate(-60.307779, -122.774441) " points="55.8049864 119.653441 64.8105721 119.653441 64.8105721 125.895442 55.8049864 125.895442"/><polygon id="Rectangle" fill="#0079FF" opacity="0.4" transform="translate(109.030339, 89.406293) rotate(-12.600000) translate(-109.030339, -89.406293) " points="72.8906229 87.5936678 145.170054 87.5936678 145.170054 91.2189187 72.8906229 91.2189187"/><polygon id="Rectangle" fill="#0079FF" opacity="0.4" transform="translate(111.345951, 99.768722) rotate(-12.600000) translate(-111.345951, -99.768722) " points="75.206235 97.9560967 147.485666 97.9560967 147.485666 101.581348 75.206235 101.581348"/><polygon id="Rectangle" fill="#0079FF" opacity="0.4" transform="translate(113.661563, 110.127974) rotate(-12.600000) translate(-113.661563, -110.127974) " points="77.521847 108.315348 149.801278 108.315348 149.801278 111.940599 77.521847 111.940599"/><rect id="Rectangle" fill="#F5F5F5" x="54.3533445" y="6.18929766" width="180.468227" height="7.62541806"/><rect id="Rectangle" fill="url(#linearGradient-5)" x="50.8583612" y="3.64749164" width="188.093645" height="144.247492"/><rect id="Rectangle" fill="#FFFFFF" x="63.2274247" y="39.7157191" width="180.468227" height="131.538462"/><circle id="Oval" fill="#FF5252" cx="58.7602007" cy="10.0020067" r="1.86505017"/><circle id="Oval" fill="#FFFF00" cx="63.8851171" cy="10.0020067" r="1.86505017"/><circle id="Oval" fill="#69F0AE" cx="69.0100334" cy="10.0020067" r="1.86505017"/><rect id="Rectangle" fill="url(#linearGradient-5)" x="61.9787625" y="25.5705686" width="162.040134" height="47.6588629"/><rect id="Rectangle" fill="#0079FF" x="63.8851171" y="27.4769231" width="158.545151" height="44.1638796"/><rect id="Rectangle" fill="url(#linearGradient-5)" x="89.620903" y="91.6575251" width="10.8026756" height="9.21404682"/><rect id="Rectangle" fill="#0079FF" x="90.0974916" y="92.2929766" width="10.1672241" height="7.62541806"/><rect id="Rectangle" fill="#FF5252" x="90.0974916" y="105.319732" width="10.1672241" height="7.62541806"/><rect id="Rectangle" fill="#FF9800" x="90.0974916" y="118.346488" width="10.1672241" height="7.62541806"/><rect id="Rectangle" fill="#0079FF" opacity="0.4" x="117.104181" y="93.8816054" width="81.9732441" height="4.44816054"/><rect id="Rectangle" fill="#0079FF" opacity="0.4" x="117.104181" y="106.908361" width="81.9732441" height="4.44816054"/><rect id="Rectangle" fill="#0079FF" opacity="0.4" x="117.104181" y="119.935117" width="81.9732441" height="4.44816054"/><rect id="Rectangle" fill="url(#linearGradient-5)" x="115.99214" y="116.122408" width="59.09699" height="48.6120401"/><path d="M129.62893,108.39214 C129.62893,99.2525205 137.038056,91.8433946 146.177676,91.8433946 C155.317296,91.8433946 162.726421,99.2525205 162.726421,108.39214 L162.726421,118.98194 L167.358863,118.98194 L167.358863,108.39214 C167.452303,100.763012 163.435752,93.6730791 156.843866,89.8312859 C150.25198,85.9894926 142.103371,85.9894926 135.511485,89.8312859 C128.919599,93.6730791 124.903048,100.763012 124.996488,108.39214 L124.996488,118.98194 L129.62893,118.98194 L129.62893,108.39214 Z" id="Path" fill="url(#linearGradient-7)"/><path d="M130.289799,108.179264 C130.289799,99.4055098 137.402333,92.2929766 146.176087,92.2929766 C154.949841,92.2929766 162.062375,99.4055098 162.062375,108.179264 L162.062375,118.346488 L166.510535,118.346488 L166.510535,108.179264 C166.510535,96.9488586 157.406493,87.8448161 146.176087,87.8448161 C134.945681,87.8448161 125.841639,96.9488586 125.841639,108.179264 L125.841639,118.346488 L130.289799,118.346488 L130.289799,108.179264 Z" id="Path" fill="#FFFFFF"/><rect id="Rectangle" fill="#0079FF" x="118.533946" y="117.711037" width="55.2842809" height="45.1170569"/><rect id="Rectangle" fill="#FFFFFF" x="118.533946" y="117.711037" width="55.2842809" height="45.1170569"/><rect id="Rectangle" fill="#0079FF" x="118.533946" y="126.607358" width="55.2842809" height="27.3244147"/><path d="M150.233445,135.109699 C150.242005,133.28467 149.030069,131.678887 147.272639,131.186709 C145.515208,130.69453 143.645547,131.437295 142.704987,133.001312 C141.764426,134.565329 141.984845,136.565015 143.243478,137.886622 L143.243478,146.535117 C143.243478,148.163526 144.563564,149.483612 146.191973,149.483612 C147.820382,149.483612 149.140468,148.163526 149.140468,146.535117 L149.140468,137.886622 C149.846275,137.134666 150.237374,136.141002 150.233445,135.109699 Z" id="Path" fill="url(#linearGradient-8)"/><path d="M149.67107,135.821405 C149.673899,134.251304 148.629337,132.872028 147.117232,132.449226 C145.605126,132.026424 143.996663,132.663884 143.184714,134.007745 C142.372765,135.351607 142.556645,137.071984 143.634281,138.21388 L143.634281,145.670903 C143.634281,147.074704 144.772286,148.212709 146.176087,148.212709 C147.579888,148.212709 148.717893,147.074704 148.717893,145.670903 L148.717893,138.21388 C149.328573,137.566791 149.669464,136.711153 149.67107,135.821405 Z" id="Path" fill="#000000" opacity="0.2"/></g></g></g></g></svg>