<svg xmlns="http://www.w3.org/2000/svg" xmlns:xlink="http://www.w3.org/1999/xlink" version="1.1" width="22" height="22"><rect id="backgroundrect" width="100%" height="100%" x="0" y="0" fill="none" stroke="none"/><!-- Generator: Sketch 52.4 (67378) - http://www.bohemiancoding.com/sketch --><title>Fill 4</title><desc>Created with Sketch.</desc><g class="currentLayer" style=""><title>Layer 1</title><g id="About/Team" stroke="none" stroke-width="1" fill="#ffffff" fill-rule="evenodd" class="selected" fill-opacity="1"><g id="Landing" fill="#ffffff" fill-opacity="1"><g id="header" fill="#ffffff" fill-opacity="1"><g id="socials" fill="#ffffff" fill-opacity="1"><g id="social_linkedin_fill" fill="#ffffff" fill-opacity="1"><path d="M21.603707600000007,21.600189 L17.220566899999994,21.600189 L17.220566899999994,14.741013099999996 C17.220566899999994,13.105647599999998 17.192654100000027,11.0015103 14.943205600000056,11.0015103 C12.661739500000067,11.0015103 12.313649599999962,12.7838287 12.313649599999962,14.6244358 L12.313649599999962,21.600189 L7.935434799999939,21.600189 L7.935434799999939,7.495982920000003 L12.137141800000109,7.495982920000003 L12.137141800000109,9.424433440000001 L12.197893300000032,9.424433440000001 C12.782421599999907,8.315307580000002 14.212545399999954,7.146251149999998 16.344595600000048,7.146251149999998 C20.783562000000074,7.146251149999998 21.603707600000007,10.066429299999996 21.603707600000007,13.865041699999999 L21.603707600000007,21.600189 L21.603707600000007,21.600189 zM2.9932159200000115,5.569174330000003 C1.5852582200000143,5.569174330000003 0.44986142199991264,4.430493669999997 0.44986142199991264,3.0266408000000027 C0.44986142199991264,1.6236088899999999 1.5852582200000143,0.4849282309999979 2.9932159200000115,0.4849282309999979 C4.395426860000043,0.4849282309999979 5.533286549999957,1.6236088899999999 5.533286549999957,3.0266408000000027 C5.533286549999957,4.430493669999997 4.395426860000043,5.569174330000003 2.9932159200000115,5.569174330000003 L2.9932159200000115,5.569174330000003 zM0.7979512570000225,21.600189 L5.1860176899999715,21.600189 L5.1860176899999715,7.495982920000003 L0.7979512570000225,7.495982920000003 L0.7979512570000225,21.600189 z" id="Fill-4" fill="#ffffff" fill-opacity="1"/></g></g></g></g></g></g></svg>