<svg class="linkedinSVG" viewBox="0 0 22 22" version="1.1" xmlns="http://www.w3.org/2000/svg" xmlns:xlink="http://www.w3.org/1999/xlink"><!-- Generator: Sketch 52.4 (67378) - http://www.bohemiancoding.com/sketch --><title>Fill 4</title><desc>Created with Sketch.</desc><g id="About/Team" stroke="none" stroke-width="1" fill="currentColor" fill-rule="evenodd"><g id="Landing" transform="translate(-1302.000000, -50.000000)" fill="currentColor"><g id="header" transform="translate(116.000000, 44.000000)"><g id="socials" transform="translate(1138.000000, 6.000000)"><g id="social_linkedin_fill" transform="translate(48.000000, 0.000000)"><path d="M21.6037076,21.600189 L17.2205669,21.600189 L17.2205669,14.7410131 C17.2205669,13.1056476 17.1926541,11.0015103 14.9432056,11.0015103 C12.6617395,11.0015103 12.3136496,12.7838287 12.3136496,14.6244358 L12.3136496,21.600189 L7.9354348,21.600189 L7.9354348,7.49598292 L12.1371418,7.49598292 L12.1371418,9.42443344 L12.1978933,9.42443344 C12.7824216,8.31530758 14.2125454,7.14625115 16.3445956,7.14625115 C20.783562,7.14625115 21.6037076,10.0664293 21.6037076,13.8650417 L21.6037076,21.600189 L21.6037076,21.600189 Z M2.99321592,5.56917433 C1.58525822,5.56917433 0.449861422,4.43049367 0.449861422,3.0266408 C0.449861422,1.62360889 1.58525822,0.484928231 2.99321592,0.484928231 C4.39542686,0.484928231 5.53328655,1.62360889 5.53328655,3.0266408 C5.53328655,4.43049367 4.39542686,5.56917433 2.99321592,5.56917433 L2.99321592,5.56917433 Z M0.797951257,21.600189 L5.18601769,21.600189 L5.18601769,7.49598292 L0.797951257,7.49598292 L0.797951257,21.600189 Z" id="Fill-4"/></g></g></g></g></g></svg>