<svg class="buttonArrowSVG" viewBox="0 0 25 26" version="1.1" xmlns="http://www.w3.org/2000/svg" xmlns:xlink="http://www.w3.org/1999/xlink"><!-- Generator: Sketch 52.4 (67378) - http://www.bohemiancoding.com/sketch --><title>icon-arrow-thin-right-circle</title><desc>Created with Sketch.</desc><g id="Website" stroke="none" stroke-width="1" fill="none" fill-rule="evenodd"><g id="Artboard" transform="translate(-261.000000, -113.000000)"><g id="Group-3" transform="translate(37.000000, 102.000000)"><g id="icon-arrow-thin-right-circle" transform="translate(224.000000, 11.707317)"><circle id="Oval" fill="rgba(0,6,61,0.4)" cx="12.5" cy="12.5" r="12.5"/><path d="M15.3090472,13.4428615 L7.08370747,13.4428615 C6.48519236,13.4428615 6,12.8925012 6,12.2135974 C6,11.5346936 6.48519236,10.9843333 7.08370747,10.9843333 L15.3090472,10.9843333 L12.81652,8.15702594 C12.5092927,7.85407535 12.3776556,7.3813782 12.4757106,6.93320998 C12.5737656,6.48504175 12.8849707,6.13700949 13.2814226,6.03215219 C13.6778744,5.9272949 14.0926907,6.08330225 14.3553846,6.43605623 L18.6902145,11.3531125 C19.1032618,11.8311039 19.1032618,12.5960909 18.6902145,13.0740823 L14.3553846,17.9911386 C13.9280533,18.4125213 13.2867642,18.389708 12.8835507,17.9387794 C12.4803373,17.4878508 12.4511315,16.7608246 12.81652,16.2701689 L15.3090472,13.4428615 Z" id="Path" fill="#fff"/></g></g></g></g></svg>