<svg viewBox="0 0 49 41" class="twitterSVG" version="1.1" xmlns="http://www.w3.org/2000/svg" xmlns:xlink="http://www.w3.org/1999/xlink"><defs/><g id="Page-1" stroke="none" stroke-width="1" fill="currentColor" fill-rule="evenodd"><g id="social_twitter_fill" fill="currentColor"><path d="M15.40952,40.6279381 C33.90016,40.6279381 44.01376,24.9959381 44.01376,11.4399381 C44.01376,10.9959381 44.01376,10.5539381 43.98436,10.1139381 C45.9518695,8.66175977 47.6502567,6.86369685 49,4.80393806 C47.165203,5.63354161 45.2188254,6.17759536 43.22584,6.41793806 C45.3244982,5.13590218 46.8952021,3.11948203 47.64564,0.743938063 C45.6722287,1.93884869 43.5132664,2.7809621 41.26192,3.23393806 C38.1456822,-0.14727338 33.1940099,-0.974836769 29.1835166,1.21529792 C25.1730232,3.40543261 23.101099,8.06858952 24.12956,12.5899381 C16.0463156,12.1764371 8.51517253,8.28058461 3.4104,1.87193806 C0.742100602,6.55922752 2.10501625,12.555657 6.52288,15.5659381 C4.92301275,15.5175532 3.35802757,15.0771644 1.96,14.2819381 L1.96,14.4119381 C1.96130954,19.295124 5.33463292,23.5010084 10.0254,24.4679381 C8.54534441,24.8798182 6.99245795,24.9400267 5.48604,24.6439381 C6.80305794,28.8227837 10.5772861,31.6855058 14.87836,31.7679381 C11.3184807,34.6228019 6.92087664,36.1725935 2.39316,36.1679381 C1.59329099,36.1663712 0.794199968,36.116953 0,36.0199381 C4.59744646,39.0304912 9.94683027,40.6273719 15.40952,40.6199381" id="Shape"/></g></g></svg>