<svg xmlns="http://www.w3.org/2000/svg" xmlns:xlink="http://www.w3.org/1999/xlink" version="1.1" width="49" height="41"><rect id="backgroundrect" width="100%" height="100%" x="0" y="0" fill="none" stroke="none"/><defs/><g class="currentLayer" style=""><title>Layer 1</title><g id="Page-1" stroke="none" stroke-width="1" fill="#ffffff" fill-rule="evenodd" class="selected" fill-opacity="1"><g id="social_twitter_fill" fill="#ffffff" fill-opacity="1"><path d="M15.40952,39.81492997040329 C33.90016,39.81492997040329 44.01376,24.18292997040329 44.01376,10.62692997040329 C44.01376,10.18292997040329 44.01376,9.74092997040329 43.98436,9.30092997040329 C45.9518695,7.8487516404032895 47.6502567,6.05068872040329 49,3.99092993040329 C47.165203,4.82053348040329 45.2188254,5.3645872304032896 43.22584,5.60492993040329 C45.3244982,4.32289405040329 46.8952021,2.3064739004032897 47.64564,-0.06907006659671011 C45.6722287,1.12584056040329 43.5132664,1.9679539704032898 41.26192,2.4209299304032896 C38.1456822,-0.9602815095967102 33.1940099,-1.7878448985967101 29.1835166,0.4022897904032898 C25.1730232,2.59242448040329 23.101099,7.2555813904032895 24.12956,11.77692997040329 C16.0463156,11.36342897040329 8.51517253,7.46757648040329 3.4104,1.05892993040329 C0.7421006020000002,5.74621939040329 2.10501625,11.74264887040329 6.52288,14.75292997040329 C4.92301275,14.70454507040329 3.35802757,14.26415627040329 1.96,13.46892997040329 L1.96,13.59892997040329 C1.96130954,18.48211587040329 5.33463292,22.68800027040329 10.0254,23.65492997040329 C8.54534441,24.06681007040329 6.99245795,24.12701857040329 5.48604,23.83092997040329 C6.80305794,28.00977557040329 10.5772861,30.87249767040329 14.87836,30.95492997040329 C11.3184807,33.80979377040329 6.92087664,35.35958537040329 2.39316,35.35492997040329 C1.59329099,35.35336307040329 0.794199968,35.30394487040329 0,35.20692997040329 C4.5974464600000005,38.21748307040329 9.94683027,39.81436377040329 15.40952,39.80692997040329 " id="Shape" fill="#ffffff" fill-opacity="1"/></g></g></g></svg>