<svg class="threeIcon" viewBox="0 0 275 198" version="1.1" xmlns="http://www.w3.org/2000/svg" xmlns:xlink="http://www.w3.org/1999/xlink"><!-- Generator: Sketch 52.4 (67378) - http://www.bohemiancoding.com/sketch --><title>three1</title><desc>Created with Sketch.</desc><defs><linearGradient x1="49.9959763%" y1="100.000857%" x2="49.9959763%" y2="0.0159995781%" id="linearGradient-1"><stop stop-color="#808080" stop-opacity="0.25" offset="0%"/><stop stop-color="#808080" stop-opacity="0.12" offset="54%"/><stop stop-color="#808080" stop-opacity="0.1" offset="100%"/></linearGradient></defs><g id="About/Team" stroke="none" stroke-width="1" fill="none" fill-rule="evenodd"><g id="Landing" transform="translate(-936.000000, -2207.000000)"><g id="threeSection" transform="translate(-43.000000, 1576.000000)"><g id="three1" transform="translate(247.000000, 627.000000)"><g transform="translate(732.000000, 4.000000)"><ellipse id="Oval" fill="#0079FF" opacity="0.1" cx="137.5" cy="180.679825" rx="137.5" ry="16.6447368"/><path d="M235.438596,188.640351 C235.438596,188.640351 242.50573,179.485807 241.933571,170.402822 C241.670297,166.594807 242.627305,162.80257 244.661024,159.595032 C245.640057,158.081195 246.751738,156.660678 247.982456,155.350877" id="Path" stroke="#535461" stroke-width="2"/><path d="M247.660621,150.114439 C247.164475,151.351411 247.97613,155.833333 247.97613,155.833333 C247.97613,155.833333 251.658684,153.140817 252.152421,151.901443 C252.472514,151.101254 252.340225,150.191548 251.805388,149.515003 C251.27055,148.838458 250.414418,148.497857 249.559488,148.621501 C248.704557,148.745145 247.980713,149.31425 247.660621,150.114439 Z" id="Path" fill="#0079FF"/><path d="M241.284222,155.418148 C241.542102,156.761151 244.658357,160.175439 244.658357,160.175439 C244.658357,160.175439 246.282763,155.800805 246.024882,154.455334 C245.765326,153.111649 244.491522,152.23791 243.179763,152.503784 C241.868004,152.769658 241.015025,154.074463 241.274582,155.418148 L241.284222,155.418148 Z" id="Path" fill="#0079FF"/><path d="M236.519631,167.542838 C237.393487,168.536762 241.710526,169.824561 241.710526,169.824561 C241.710526,169.824561 240.967274,165.356685 240.093418,164.362762 C239.220641,163.369808 237.713096,163.276744 236.726222,164.154898 C235.739348,165.033052 235.646854,166.549884 236.519631,167.542838 Z" id="Path" fill="#0079FF"/><path d="M234.846342,177.324962 C235.569644,178.445966 239.780648,180.438596 239.780648,180.438596 C239.780648,180.438596 239.800465,175.926083 239.077163,174.81458 C238.354152,173.694405 236.820934,173.348292 235.652626,174.041515 C234.484317,174.734738 234.123331,176.204787 234.846342,177.324962 Z" id="Path" fill="#0079FF"/><path d="M249.379911,162.410882 C248.144328,162.919224 243.640351,162.169962 243.640351,162.169962 C243.640351,162.169962 246.289749,158.454971 247.534966,157.946629 C248.770059,157.437023 250.184304,158.025419 250.693772,159.260849 C251.203239,160.49628 250.615004,161.910912 249.379911,162.420519 L249.379911,162.410882 Z" id="Path" fill="#0079FF"/><path d="M247.190127,173.679361 C245.841001,173.797157 241.710526,171.729726 241.710526,171.729726 C241.710526,171.729726 245.410845,168.986775 246.762415,168.86898 C248.112236,168.752807 249.302229,169.734933 249.420338,171.06262 C249.538448,172.390306 248.539948,173.560785 247.190127,173.676957 L247.190127,173.679361 Z" id="Path" fill="#0079FF"/><path d="M244.185209,184.725919 C242.846854,185.066224 238.333333,183.709831 238.333333,183.709831 C238.333333,183.709831 241.573299,180.376773 242.911654,180.036467 C244.248874,179.6959 245.618,180.469585 245.969683,181.764541 C246.321365,183.059497 245.52243,184.385351 244.185209,184.725919 Z" id="Path" fill="#0079FF"/><path d="M247.660621,150.114439 C247.164475,151.351411 247.97613,155.833333 247.97613,155.833333 C247.97613,155.833333 251.658684,153.140817 252.152421,151.901443 C252.472514,151.101254 252.340225,150.191548 251.805388,149.515003 C251.27055,148.838458 250.414418,148.497857 249.559488,148.621501 C248.704557,148.745145 247.980713,149.31425 247.660621,150.114439 Z" id="Path" fill="#000000" opacity="0.25"/><path d="M241.284222,155.418148 C241.542102,156.761151 244.658357,160.175439 244.658357,160.175439 C244.658357,160.175439 246.282763,155.800805 246.024882,154.455334 C245.765326,153.111649 244.491522,152.23791 243.179763,152.503784 C241.868004,152.769658 241.015025,154.074463 241.274582,155.418148 L241.284222,155.418148 Z" id="Path" fill="#000000" opacity="0.25"/><path d="M236.519631,167.542838 C237.393487,168.536762 241.710526,169.824561 241.710526,169.824561 C241.710526,169.824561 240.967274,165.356685 240.093418,164.362762 C239.220641,163.369808 237.713096,163.276744 236.726222,164.154898 C235.739348,165.033052 235.646854,166.549884 236.519631,167.542838 Z" id="Path" fill="#000000" opacity="0.25"/><path d="M234.846342,177.324962 C235.569644,178.445966 239.780648,180.438596 239.780648,180.438596 C239.780648,180.438596 239.800465,175.926083 239.077163,174.81458 C238.354152,173.694405 236.820934,173.348292 235.652626,174.041515 C234.484317,174.734738 234.123331,176.204787 234.846342,177.324962 Z" id="Path" fill="#000000" opacity="0.25"/><path d="M249.379911,162.410882 C248.144328,162.919224 243.640351,162.169962 243.640351,162.169962 C243.640351,162.169962 246.289749,158.454971 247.534966,157.946629 C248.770059,157.437023 250.184304,158.025419 250.693772,159.260849 C251.203239,160.49628 250.615004,161.910912 249.379911,162.420519 L249.379911,162.410882 Z" id="Path" fill="#000000" opacity="0.25"/><path d="M247.190127,173.679361 C245.841001,173.797157 241.710526,171.729726 241.710526,171.729726 C241.710526,171.729726 245.410845,168.986775 246.762415,168.86898 C248.112236,168.752807 249.302229,169.734933 249.420338,171.06262 C249.538448,172.390306 248.539948,173.560785 247.190127,173.676957 L247.190127,173.679361 Z" id="Path" fill="#000000" opacity="0.25"/><path d="M244.185209,184.725919 C242.846854,185.066224 238.333333,183.709831 238.333333,183.709831 C238.333333,183.709831 241.573299,180.376773 242.911654,180.036467 C244.248874,179.6959 245.618,180.469585 245.969683,181.764541 C246.321365,183.059497 245.52243,184.385351 244.185209,184.725919 Z" id="Path" fill="#000000" opacity="0.25"/><path d="M235.438596,188.157895 C235.438596,188.157895 245.697616,182.741339 248.837579,174.261122 C250.130016,170.696148 252.547488,167.644277 255.727782,165.562771 C257.247546,164.587757 258.853764,163.753408 260.526316,163.070175" id="Path" stroke="#535461" stroke-width="2"/><path d="M262.602919,157.990637 C261.619911,158.958375 260.526316,163.552632 260.526316,163.552632 C260.526316,163.552632 265.077639,162.539999 266.053274,161.574757 C266.684108,160.951 266.939142,160.033061 266.722307,159.166718 C266.505473,158.300375 265.849712,157.617245 265.002044,157.374658 C264.154377,157.132071 263.243582,157.366881 262.612749,157.990637 L262.602919,157.990637 Z" id="Path" fill="#0079FF"/><path d="M254.2927,160.185879 C253.997931,161.526556 255.500768,165.964912 255.500768,165.964912 C255.500768,165.964912 258.723894,162.624374 259.018663,161.283697 C259.314231,159.943113 258.494271,158.6106 257.187231,158.307446 C255.880191,158.004292 254.58102,158.845295 254.285451,160.185879 L254.2927,160.185879 Z" id="Path" fill="#0079FF"/><path d="M245.210709,169.256965 C245.613689,170.58841 249.09814,173.684211 249.09814,173.684211 C249.09814,173.684211 250.234689,169.060645 249.822056,167.7292 C249.560409,166.86821 248.878257,166.218218 248.032562,166.02407 C247.186867,165.829921 246.30611,166.121111 245.722063,166.787952 C245.138015,167.454793 244.939409,168.395975 245.201057,169.256965 L245.210709,169.256965 Z" id="Path" fill="#0079FF"/><path d="M239.800932,177.930967 C239.983852,179.279895 242.908168,182.850877 242.908168,182.850877 C242.908168,182.850877 244.773472,178.605431 244.592958,177.258955 C244.475154,176.387107 243.909851,175.645529 243.109992,175.313566 C242.310134,174.981603 241.397237,175.109688 240.715183,175.649572 C240.033128,176.189456 239.685535,177.059119 239.803339,177.930967 L239.800932,177.930967 Z" id="Path" fill="#0079FF"/><path d="M258.980124,169.823737 C257.627505,169.790108 253.77193,167.277534 253.77193,167.277534 C253.77193,167.277534 257.756674,164.966734 259.106856,165.000364 C260.458242,165.034856 261.525387,166.142566 261.490391,167.474504 C261.455395,168.806442 260.331511,169.858229 258.980124,169.823737 Z" id="Path" fill="#0079FF"/><path d="M252.339157,179.825582 C251.010894,179.393375 247.982456,175.841546 247.982456,175.841546 C247.982456,175.841546 252.65541,174.803282 253.983672,175.237904 C254.842368,175.518262 255.479114,176.214528 255.654055,177.064423 C255.828995,177.914319 255.515552,178.788726 254.831797,179.358263 C254.148042,179.9278 253.197853,180.105941 252.339157,179.825582 Z" id="Path" fill="#0079FF"/><path d="M245.111536,188.126642 C243.768719,187.91471 240.263158,184.909131 240.263158,184.909131 C240.263158,184.909131 244.554279,183.139019 245.90937,183.350951 C247.253636,183.563763 248.167525,184.805356 247.950599,186.124127 C247.733672,187.442897 246.468076,188.339454 245.12381,188.126642 L245.111536,188.126642 Z" id="Path" fill="#0079FF"/><path d="M156.839254,23.3758549 C143.260492,22.903545 130.328221,18.517459 117.980987,13.7181019 C105.633753,8.91874471 93.3995936,3.60033867 80.1453062,1.07151286 C71.622937,-0.564352086 61.8739563,-0.795587131 55.0059149,3.77745488 C48.4008945,8.16600084 46.2623132,15.7623181 45.1143622,22.812527 C44.2490971,28.1161733 43.7402623,33.6977937 46.0976179,38.6619674 C47.7421131,42.1058936 50.6599246,45.0086314 52.678057,48.3098806 C59.698503,59.7978344 54.7355196,73.9646709 47.1275783,85.1844905 C43.5583599,90.4463177 39.4188533,95.4646102 36.663279,101.06837 C33.9077048,106.67213 32.6368468,113.087673 35.0458233,118.80213 C37.4351348,124.460009 43.1257274,128.720638 49.2907409,131.711933 C61.8125028,137.790463 76.5760878,139.529646 90.9586612,140.513625 C122.811231,142.695598 154.833412,141.743598 186.769559,140.803899 C198.590751,140.454586 210.461106,140.100354 222.088105,138.272613 C228.545637,137.256655 235.212111,135.642929 239.897325,131.751293 C245.84848,126.811718 247.323364,118.445438 243.33872,112.25129 C236.650123,101.860473 218.15754,99.2799884 213.482159,88.1290474 C210.910946,81.9914789 213.553445,75.1552854 217.292275,69.4629673 C225.313184,57.2493291 238.759206,46.5362586 239.469609,32.5785177 C239.961237,22.9847233 233.491414,13.3909289 223.491703,8.85478608 C213.015113,4.10216792 198.487509,4.69993511 190.759119,12.5693065 C182.814413,20.6748328 168.8276,23.791586 156.839254,23.3758549 Z" id="Path" fill="#0079FF" opacity="0.1"/><path d="M145.701754,77.6754386 L139.429825,77.6754386 C139.433935,77.2161857 139.464242,76.7574809 139.520612,76.3013393 C139.71732,74.6782744 140.322572,72.0449831 142.198855,70.8097301 C143.951566,69.6558697 146.233872,71.3962359 145.338603,73.2371459 L145.315906,73.2874178 C144.980495,73.9529223 144.970408,74.7812121 145.08137,75.5400788 C145.199093,76.272525 145.407323,76.9892529 145.701754,77.6754386 Z" id="Path" fill="#0079FF"/><path d="M145.701754,77.6754386 L139.429825,77.6754386 C139.433935,77.1642713 139.464242,76.6537142 139.520612,76.14601 C141.290692,75.4448459 143.18321,75.1558204 145.068761,75.2986959 C145.19054,76.1144921 145.403007,76.9122556 145.701754,77.6754386 Z" id="Path" fill="#000000" opacity="0.1"/><path d="M149.523233,84.2823625 C147.954738,85.5856774 145.761278,85.6055374 143.516751,85.0469739 C138.920697,83.9000568 134.122807,80.3103552 134.122807,80.3103552 C134.449466,79.9404807 134.800456,79.5937805 135.173333,79.2726683 C137.065254,77.6143553 141.401107,74.6825174 147.205752,76.1397476 C148.625335,76.4725424 149.875783,77.3259209 150.719666,78.537847 C151.680216,79.9727346 152.181162,82.075416 149.523233,84.2823625 Z" id="Path" fill="#0079FF"/><path d="M147.631579,81.584095 C147.631579,81.584095 144.181996,78.7791358 139.429825,82.5" id="Path" fill="#000000" opacity="0.1"/><path d="M48.7280702,106.889421 C48.7280702,106.889421 37.3146216,98.1743115 36.7407473,106.075587 C36.166873,113.976862 39.0387075,121.391793 41.5016874,122.041882 C43.9646672,122.691972 48.7280702,106.889421 48.7280702,106.889421 Z" id="Path" fill="#0079FF"/><path d="M48.7280702,106.889421 C48.7280702,106.889421 37.3146216,98.1743115 36.7407473,106.075587 C36.166873,113.976862 39.0387075,121.391793 41.5016874,122.041882 C43.9646672,122.691972 48.7280702,106.889421 48.7280702,106.889421 Z" id="Path" fill="#000000" opacity="0.2"/><path d="M41.0087719,110 C41.0087719,110 41.2819754,117.313302 43.6004453,116.145632 C45.9189151,114.977962 42.5126443,110.326948 41.0087719,110 Z" id="Path" fill="#000000" opacity="0.1"/><path d="M76.4529204,169.503812 C76.1838631,170.613047 75.768955,171.68328 75.2186215,172.687621 C75.0779114,172.949105 74.9248584,173.217853 74.7569937,173.491442 C72.0637536,177.883404 65.8379502,179.706528 65.8379502,178.738069 C65.8379502,177.76961 65.2232693,175.266144 63.6581784,175.992488 C62.0930874,176.718832 59.708422,176.559036 59.708422,176.559036 C55.400719,176.237024 56.1289553,172.07265 57.5558048,168.545038 C58.0303539,167.385479 58.5727003,166.253731 59.1801421,165.155431 C59.7182964,164.186972 60.1206778,163.552632 60.1206778,163.552632 L76.5788188,166.135996 C76.5788188,166.135996 76.9466399,167.40952 76.4529204,169.503812 Z" id="Path" fill="#0079FF"/><path d="M143.77193,84.9122807 C139.051028,83.7623508 134.122807,80.1632197 134.122807,80.1632197 C134.45834,79.7923736 134.818864,79.4447627 135.20187,79.122807 C135.921246,79.5011389 136.643952,79.9035314 137.369988,80.3299845 C139.645984,81.6500962 141.789766,83.1845442 143.77193,84.9122807 Z" id="Path" fill="#000000" opacity="0.1"/><path d="M76.457944,169.342105 C72.0347223,168.959759 65.6285083,167.909488 59.3421053,165.115058 C59.8751414,164.170994 60.2736959,163.552632 60.2736959,163.552632 L76.5753098,166.070923 C76.5753098,166.070923 76.946968,167.300566 76.457944,169.342105 Z" id="Path" fill="#000000" opacity="0.1"/><path d="M145.682247,148.05578 C145.682247,148.05578 145.387139,153.309419 142.421303,159.246497 C140.137589,163.915831 136.614917,167.868487 132.237618,170.673222 C132.237618,170.673222 129.616075,172.80467 129.451306,166.904468 C129.451306,166.904468 128.302844,165.675259 120.433297,171.046901 C120.433297,171.046901 115.684517,173.947834 116.99037,161.845044 C116.99037,161.845044 116.99037,161.830294 116.99037,161.822919 C116.99037,161.815543 116.872327,161.89913 116.655915,162.029426 L116.641159,162.029426 C116.080454,162.373604 114.890185,163.07917 113.473667,163.789653 C110.879175,165.092614 107.517403,166.417701 105.850043,165.581839 C105.467129,168.645083 104.521689,171.611313 103.061272,174.331347 C101.408667,177.337992 98.80188,180.278259 94.7195525,181.605804 C92.6207266,182.278563 90.3217891,181.718264 88.7682076,180.155338 L88.3009533,179.688239 C88.3009533,179.688239 84.6932578,182.146656 82.8906397,181.325545 C81.0880216,180.504433 79.6100223,178.213188 82.0692558,173.950292 C82.0692558,173.950292 82.1995951,173.59628 82.3594453,173.077554 C82.7603004,171.762301 83.3431387,169.389928 82.398793,169.033457 C82.398793,169.033457 44.197061,171.000191 39.1162847,137.074029 C34.0355085,103.147868 67.6433925,90.6935244 77.1507889,92.003861 C77.1507889,92.003861 102.399738,60.2091471 137.320853,80.6951404 C172.241968,101.181134 145.682247,148.05578 145.682247,148.05578 Z" id="Path" fill="#0079FF"/><path d="M76.7105263,92.1491228 C76.7105263,92.1491228 118.516626,91.9874936 115.648355,145.701754" id="Path" stroke="#000000" opacity="0.1"/><path d="M75.2631579,172.586338 C75.122114,172.852023 74.9686978,173.125089 74.8004349,173.403074 C72.1008048,177.865604 65.8602301,179.718021 65.8602301,178.734001 C65.8602301,177.749982 65.2440909,175.20629 63.6752866,175.944305 C62.1064824,176.68232 59.7161591,176.519957 59.7161591,176.519957 C55.3982357,176.19277 56.1281999,171.961485 57.5584347,168.377193 C61.6066425,170.396894 68.9285539,173.405534 75.2631579,172.586338 Z" id="Path" fill="#000000" opacity="0.2"/><path d="M102.763158,174.437869 C101.117613,177.402119 98.5219627,180.300928 94.4570758,181.609755 C92.3672166,182.273027 90.0781007,181.720629 88.5311565,180.17974 L88.0658983,179.719227 C88.0658983,179.719227 84.4736158,182.14298 82.6786989,181.333447 C80.883782,180.523913 79.412097,178.264975 81.8608241,174.062187 C81.8608241,174.062187 81.9906066,173.713166 82.1497738,173.201754 C85.3502601,174.319105 93.827753,176.696807 102.763158,174.437869 Z" id="Path" fill="#000000" opacity="0.2"/><path d="M116.754386,162.105263 C131.581566,154.323527 134.122807,148.114035 134.122807,148.114035" id="Path" fill="#000000" opacity="0.1"/><path d="M142.324561,159.210526 C140.048678,163.863039 136.538085,167.801456 132.175796,170.596086 C132.175796,170.596086 129.563243,172.719856 129.399039,166.840909 C129.399039,166.840909 128.254515,165.616128 120.411954,170.968419 C120.411954,170.968419 115.679458,173.858901 116.980833,161.799712 L120.902114,159.626952 C129.352474,164.32276 137.842047,161.459223 142.324561,159.210526 Z" id="Path" fill="#000000" opacity="0.2"/><path d="M81.5350877,96.8689315 C81.5350877,96.8689315 89.9747775,84.0919453 96.3442611,88.1044104 C102.713745,92.1168755 95.1875271,107.105263 95.1875271,107.105263 C95.1875271,107.105263 82.6918217,106.859552 81.5350877,96.8689315 Z" id="Path" fill="#0079FF"/><path d="M81.5350877,96.8689315 C81.5350877,96.8689315 89.9747775,84.0919453 96.3442611,88.1044104 C102.713745,92.1168755 95.1875271,107.105263 95.1875271,107.105263 C95.1875271,107.105263 82.6918217,106.859552 81.5350877,96.8689315 Z" id="Path" fill="#000000" opacity="0.2"/><path d="M95.0438596,93.1140351 C95.0438596,93.1140351 84.1401661,98.5551392 87.4769355,101.73644 C90.813705,104.917741 95.0438596,93.1140351 95.0438596,93.1140351 Z" id="Path" fill="#000000" opacity="0.1"/><path d="M123.991228,78.8794574 C121.18313,79.1177413 118.402795,79.6190571 115.685783,80.3769933 L115.609496,80.3994563 C111.760692,81.4851699 107.390182,83.3121636 104.385457,86.3596491 C104.385457,86.3596491 97.413805,83.3645774 95.5263158,83.863756 C95.5263158,83.863756 101.186323,76.8877347 116.406819,76.7105263 L116.443732,76.7105263 C116.443732,76.7105263 120.381128,77.0499678 123.991228,78.8794574 Z" id="Path"/><ellipse id="Oval" fill="#000000" opacity="0.1" transform="translate(65.719045, 132.746091) rotate(-13.000000) translate(-65.719045, -132.746091) " cx="65.7190454" cy="132.746091" rx="15.3456176" ry="12.697716"/><ellipse id="Oval" fill="#0079FF" transform="translate(65.719070, 132.254932) rotate(-13.000000) translate(-65.719070, -132.254932) " cx="65.7190695" cy="132.254932" rx="15.3456176" ry="12.697716"/><ellipse id="Oval" fill="#000000" opacity="0.2" transform="translate(65.719070, 132.254932) rotate(-13.000000) translate(-65.719070, -132.254932) " cx="65.7190695" cy="132.254932" rx="15.3456176" ry="12.697716"/><path d="M59.3421053,132.192982 C59.3421053,132.192982 59.4901785,136.630847 60.7432757,135.332074 C61.996373,134.033302 60.8162073,132.188402 59.3421053,132.192982 Z" id="Path" fill="#000000" opacity="0.1"/><path d="M67.0614035,128.815866 C67.0614035,128.815866 67.2074296,133.253633 68.4619262,131.954886 C69.7164229,130.656139 68.5349392,128.802098 67.0614035,128.815866 Z" id="Path" fill="#000000" opacity="0.1"/><path d="M80.5701754,155.660454 C80.5701754,155.660454 84.048101,158.929173 88.2894737,154.385965" id="Path" fill="#000000" opacity="0.1"/><path d="M96.0087719,83.863756 C97.8836259,83.3645774 104.808608,86.3596491 104.808608,86.3596491 C107.793219,83.3121636 112.141805,81.4851699 115.957512,80.3994563 L116.754386,76.7105263 C101.621112,76.8877347 96.0087719,83.863756 96.0087719,83.863756 Z" id="Path" fill="#000000" opacity="0.15"/><path d="M116.53796,76.7105263 L115.789474,80.0877193 C118.472565,79.3895821 121.218188,78.9278188 123.991228,78.7083348 C120.426199,77.0162899 116.53796,76.7105263 116.53796,76.7105263 Z" id="Path" fill="#000000" opacity="0.3"/><polygon id="Path" fill="#000000" opacity="0.15" points="116.711691 76.7105263 115.789474 80.5701754 115.877711 80.5466728 116.754386 76.7105263"/><g id="Group" opacity="0.1" transform="translate(38.596491, 91.666667)" fill="#FFFFFF"><path d="M45.2376973,83.6199856 C45.2376973,83.6199856 45.3679095,83.2659553 45.5276038,82.7472026 C45.9280679,81.4318818 46.5103377,79.0593872 45.5669132,78.7028983 C45.5669132,78.7028983 45.1295966,78.7250252 44.3384958,78.7225667 C44.2523478,79.5890277 44.0736154,80.4437487 43.8053627,81.2720764 C43.6456684,81.7908291 43.5154562,82.1448594 43.5154562,82.1448594 C41.0586215,86.407974 42.5327223,88.7017952 44.336039,89.5204903 L44.4318555,89.5549099 C43.7070893,88.3133453 43.6481253,86.3784715 45.2376973,83.6199856 Z" id="Path"/><path d="M2.32662246,46.7418313 C-2.75165486,12.8139293 31.9069122,-0.973583273 41.4050352,0.34665465 L38.6042436,0.20405912 C29.1061207,-1.10634463 -4.47143915,11.3486373 0.606838171,45.2765393 C2.20378072,55.9441601 7.0732271,63.0616438 12.9966556,67.8090916 C7.86187104,63.0886878 3.76632759,56.3571954 2.32662246,46.7418313 Z" id="Path"/><path d="M80.1222932,71.5141168 C80.1222932,71.5141168 80.1222932,71.4993655 80.1222932,71.4919899 C80.1222932,71.4846143 80.0043651,71.5682048 79.7881637,71.6985076 L79.7734227,71.6985076 C79.44175,71.9001081 78.8889622,72.2320115 78.2010485,72.6155443 C77.955365,78.2087311 79.4024406,79.4207931 80.5399551,79.5265105 C79.9625989,78.2210238 79.6604083,75.8239438 80.1222932,71.5141168 Z" id="Path"/><path d="M92.5735315,76.5737996 C92.5735315,76.5737996 92.2787113,76.2615645 90.9765889,76.6475559 C91.3156321,79.0864311 92.2541429,79.3519539 92.922402,79.2068998 C92.6933187,78.3478894 92.5760587,77.4628691 92.5735315,76.5737996 Z" id="Path"/></g><path d="M82.0175439,168.859649 C82.0175439,168.859649 103.51035,167.573904 105.657895,165.482456" id="Path" fill="#000000" opacity="0.1"/><ellipse id="Oval" fill="#FBD56F" cx="133.640351" cy="163.311404" rx="9.16666667" ry="9.89035088"/><ellipse id="Oval" fill="#000000" opacity="0.1" cx="133.640351" cy="163.311404" rx="9.16666667" ry="9.89035088"/><ellipse id="Oval" fill="#FBD56F" cx="135.087719" cy="163.552632" rx="9.16666667" ry="9.64912281"/><path d="M138.783578,172.022508 L137.829582,171.490524 C137.829582,171.490524 137.383083,173.358598 137.529476,174.692237 C137.557773,174.96673 137.752005,175.195066 138.017453,175.265898 C140.213352,175.812591 150.660947,178.144007 157.848853,174.858942 C158.060951,174.762361 158.205927,174.559733 158.229475,174.326957 C158.319751,173.508143 158.007446,171.81903 157.883011,171.490524 C157.621944,170.782028 138.783578,172.022508 138.783578,172.022508 Z" id="Path" fill="#FBD56F"/><path d="M138.783578,172.022508 L137.829582,171.490524 C137.829582,171.490524 137.383083,173.358598 137.529476,174.692237 C137.557773,174.96673 137.752005,175.195066 138.017453,175.265898 C140.213352,175.812591 150.660947,178.144007 157.848853,174.858942 C158.060951,174.762361 158.205927,174.559733 158.229475,174.326957 C158.319751,173.508143 158.007446,171.81903 157.883011,171.490524 C157.621944,170.782028 138.783578,172.022508 138.783578,172.022508 Z" id="Path" fill="#000000" opacity="0.1"/><ellipse id="Oval" fill="#FBD56F" cx="148.114035" cy="171.513158" rx="10.1315789" ry="2.17105263"/><path d="M142.640836,168.645337 L141.689244,168.113337 C141.689244,168.113337 141.242728,169.981465 141.389126,171.315142 C141.417029,171.589295 141.61165,171.817109 141.877122,171.886367 C144.073104,172.435528 154.521095,174.767011 161.709275,171.481851 C161.92073,171.384472 162.065404,171.182268 162.089912,170.949852 C162.177751,170.131013 161.865433,168.441853 161.740994,168.113337 C161.470157,167.404821 142.640836,168.645337 142.640836,168.645337 Z" id="Path" fill="#FBD56F"/><path d="M142.640836,168.645337 L141.689244,168.113337 C141.689244,168.113337 141.242728,169.981465 141.389126,171.315142 C141.417029,171.589295 141.61165,171.817109 141.877122,171.886367 C144.073104,172.435528 154.521095,174.767011 161.709275,171.481851 C161.92073,171.384472 162.065404,171.182268 162.089912,170.949852 C162.177751,170.131013 161.865433,168.441853 161.740994,168.113337 C161.470157,167.404821 142.640836,168.645337 142.640836,168.645337 Z" id="Path" fill="#000000" opacity="0.1"/><ellipse id="Oval" fill="#FBD56F" cx="151.973684" cy="168.135965" rx="10.1315789" ry="2.17105263"/><path d="M146.020318,164.30321 L145.066398,163.771226 C145.066398,163.771226 144.619934,165.6393 144.766316,166.972939 C144.794611,167.247432 144.988827,167.475768 145.254254,167.546599 C147.449978,168.093293 157.89918,170.424709 165.084075,167.139644 C165.29613,167.042538 165.441652,166.840426 165.467106,166.607659 C165.554935,165.788844 165.242655,164.099732 165.11823,163.771226 C164.857183,163.06273 146.020318,164.30321 146.020318,164.30321 Z" id="Path" fill="#FBD56F"/><path d="M146.020318,164.30321 L145.066398,163.771226 C145.066398,163.771226 144.619934,165.6393 144.766316,166.972939 C144.794611,167.247432 144.988827,167.475768 145.254254,167.546599 C147.449978,168.093293 157.89918,170.424709 165.084075,167.139644 C165.29613,167.042538 165.441652,166.840426 165.467106,166.607659 C165.554935,165.788844 165.242655,164.099732 165.11823,163.771226 C164.857183,163.06273 146.020318,164.30321 146.020318,164.30321 Z" id="Path" fill="#000000" opacity="0.1"/><ellipse id="Oval" fill="#FBD56F" cx="155.350877" cy="163.79386" rx="10.1315789" ry="2.17105263"/><path d="M142.160108,159.964062 L141.206041,159.429749 C141.206041,159.429749 140.761949,161.299845 140.905913,162.630726 C140.934882,162.904867 141.128847,163.13282 141.393926,163.204255 C143.589988,163.750823 154.038362,166.081702 161.224364,162.799843 C161.436774,162.703156 161.582471,162.500878 161.607455,162.267981 C161.695297,161.449355 161.382968,159.760631 161.258525,159.429749 C160.999878,158.718966 142.160108,159.964062 142.160108,159.964062 Z" id="Path" fill="#FBD56F"/><path d="M142.160108,159.964062 L141.206041,159.429749 C141.206041,159.429749 140.761949,161.299845 140.905913,162.630726 C140.934882,162.904867 141.128847,163.13282 141.393926,163.204255 C143.589988,163.750823 154.038362,166.081702 161.224364,162.799843 C161.436774,162.703156 161.582471,162.500878 161.607455,162.267981 C161.695297,161.449355 161.382968,159.760631 161.258525,159.429749 C160.999878,158.718966 142.160108,159.964062 142.160108,159.964062 Z" id="Path" fill="#000000" opacity="0.1"/><ellipse id="Oval" fill="#FBD56F" cx="151.491228" cy="159.451754" rx="10.1315789" ry="2.17105263"/><path d="M150.84259,156.105261 L149.890998,155.571048 C149.890998,155.571048 149.444482,157.440795 149.590881,158.771428 C149.618502,159.046098 149.813026,159.274674 150.078877,159.34485 C152.274858,159.891316 162.72285,162.221762 169.908589,158.940514 C170.120351,158.843058 170.265739,158.641239 170.291666,158.408751 C170.379505,157.590277 170.067188,155.899417 169.942749,155.571048 C169.681671,154.857946 150.84259,156.105261 150.84259,156.105261 Z" id="Path" fill="#FBD56F"/><path d="M150.84259,156.105261 L149.890998,155.571048 C149.890998,155.571048 149.444482,157.440795 149.590881,158.771428 C149.618502,159.046098 149.813026,159.274674 150.078877,159.34485 C152.274858,159.891316 162.72285,162.221762 169.908589,158.940514 C170.120351,158.843058 170.265739,158.641239 170.291666,158.408751 C170.379505,157.590277 170.067188,155.899417 169.942749,155.571048 C169.681671,154.857946 150.84259,156.105261 150.84259,156.105261 Z" id="Path" fill="#000000" opacity="0.1"/><ellipse id="Oval" fill="#FBD56F" cx="160.175439" cy="155.592105" rx="10.1315789" ry="2.17105263"/><path d="M145.054845,153.691285 L144.100778,153.156872 C144.100778,153.156872 143.656686,155.027316 143.80065,156.358445 C143.829618,156.632637 144.023584,156.860633 144.288663,156.93208 C146.484725,157.47875 156.933099,159.810064 164.119101,156.527594 C164.331511,156.430888 164.477208,156.228573 164.502192,155.995633 C164.590034,155.176854 164.277705,153.485364 164.153262,153.156872 C163.894615,152.448408 145.054845,153.691285 145.054845,153.691285 Z" id="Path" fill="#FBD56F"/><path d="M145.054845,153.691285 L144.100778,153.156872 C144.100778,153.156872 143.656686,155.027316 143.80065,156.358445 C143.829618,156.632637 144.023584,156.860633 144.288663,156.93208 C146.484725,157.47875 156.933099,159.810064 164.119101,156.527594 C164.331511,156.430888 164.477208,156.228573 164.502192,155.995633 C164.590034,155.176854 164.277705,153.485364 164.153262,153.156872 C163.894615,152.448408 145.054845,153.691285 145.054845,153.691285 Z" id="Path" fill="#000000" opacity="0.1"/><ellipse id="Oval" fill="#FBD56F" cx="154.385965" cy="153.179825" rx="10.1315789" ry="2.17105263"/><path d="M148.912766,148.866723 L147.961174,148.332311 C147.961174,148.332311 147.514657,150.202755 147.661056,151.533883 C147.688678,151.808655 147.883202,152.037317 148.149052,152.107519 C150.345034,152.654189 160.793025,154.985502 167.981205,151.703032 C168.192984,151.606056 168.33781,151.403653 168.361841,151.171071 C168.449681,150.352292 168.137363,148.663254 168.012924,148.332311 C167.754286,147.623847 148.912766,148.866723 148.912766,148.866723 Z" id="Path" fill="#FBD56F"/><path d="M148.912766,148.866723 L147.961174,148.332311 C147.961174,148.332311 147.514657,150.202755 147.661056,151.533883 C147.688678,151.808655 147.883202,152.037317 148.149052,152.107519 C150.345034,152.654189 160.793025,154.985502 167.981205,151.703032 C168.192984,151.606056 168.33781,151.403653 168.361841,151.171071 C168.449681,150.352292 168.137363,148.663254 168.012924,148.332311 C167.754286,147.623847 148.912766,148.866723 148.912766,148.866723 Z" id="Path" fill="#000000" opacity="0.1"/><ellipse id="Oval" fill="#FBD56F" cx="158.245614" cy="148.355263" rx="10.1315789" ry="2.17105263"/><path d="M150.844319,143.07725 L149.890252,142.542837 C149.890252,142.542837 149.446159,144.413281 149.590123,145.74441 C149.619092,146.018601 149.813057,146.246598 150.078137,146.318045 C152.274199,146.864715 162.722573,149.196029 169.908575,145.913559 C170.120984,145.816853 170.266681,145.614538 170.291665,145.381598 C170.379508,144.562819 170.067179,142.873781 169.942736,142.542837 C169.681648,141.834373 150.844319,143.07725 150.844319,143.07725 Z" id="Path" fill="#FBD56F"/><path d="M150.844319,143.07725 L149.890252,142.542837 C149.890252,142.542837 149.446159,144.413281 149.590123,145.74441 C149.619092,146.018601 149.813057,146.246598 150.078137,146.318045 C152.274199,146.864715 162.722573,149.196029 169.908575,145.913559 C170.120984,145.816853 170.266681,145.614538 170.291665,145.381598 C170.379508,144.562819 170.067179,142.873781 169.942736,142.542837 C169.681648,141.834373 150.844319,143.07725 150.844319,143.07725 Z" id="Path" fill="#000000" opacity="0.1"/><ellipse id="Oval" fill="#FBD56F" cx="159.692982" cy="142.565789" rx="10.1315789" ry="2.17105263"/><path d="M167.730946,173.471987 L166.776951,172.937574 C166.776951,172.937574 166.330451,174.808018 166.476845,176.139147 C166.505142,176.413627 166.699373,176.641954 166.964822,176.712782 C169.16072,177.259452 179.608315,179.590765 186.796221,176.308296 C187.008042,176.210093 187.152683,176.00701 187.176844,175.773883 C187.26712,174.955104 186.954814,173.266066 186.83038,172.937574 C186.569312,172.22911 167.730946,173.471987 167.730946,173.471987 Z" id="Path" fill="#FBD56F"/><path d="M167.730946,173.471987 L166.776951,172.937574 C166.776951,172.937574 166.330451,174.808018 166.476845,176.139147 C166.505142,176.413627 166.699373,176.641954 166.964822,176.712782 C169.16072,177.259452 179.608315,179.590765 186.796221,176.308296 C187.008042,176.210093 187.152683,176.00701 187.176844,175.773883 C187.26712,174.955104 186.954814,173.266066 186.83038,172.937574 C186.569312,172.22911 167.730946,173.471987 167.730946,173.471987 Z" id="Path" fill="#000000" opacity="0.1"/><ellipse id="Oval" fill="#FBD56F" cx="177.061404" cy="172.960526" rx="10.1315789" ry="2.17105263"/><path d="M171.107476,169.129881 L170.15341,168.595469 C170.15341,168.595469 169.709317,170.465913 169.853281,171.797041 C169.88225,172.071233 170.076215,172.299229 170.341295,172.370677 C172.537357,172.917347 182.98573,175.24866 190.171732,171.96619 C190.384142,171.869484 190.529839,171.667169 190.554823,171.434229 C190.642666,170.61545 190.330337,168.923961 190.205893,168.595469 C189.947246,167.887004 171.107476,169.129881 171.107476,169.129881 Z" id="Path" fill="#FBD56F"/><path d="M171.107476,169.129881 L170.15341,168.595469 C170.15341,168.595469 169.709317,170.465913 169.853281,171.797041 C169.88225,172.071233 170.076215,172.299229 170.341295,172.370677 C172.537357,172.917347 182.98573,175.24866 190.171732,171.96619 C190.384142,171.869484 190.529839,171.667169 190.554823,171.434229 C190.642666,170.61545 190.330337,168.923961 190.205893,168.595469 C189.947246,167.887004 171.107476,169.129881 171.107476,169.129881 Z" id="Path" fill="#000000" opacity="0.1"/><ellipse id="Oval" fill="#FBD56F" cx="180.438596" cy="168.618421" rx="10.1315789" ry="2.17105263"/><path d="M167.728555,164.298141 L166.776963,163.765547 C166.776963,163.765547 166.330447,165.635762 166.476846,166.970929 C166.504749,167.245388 166.699369,167.473456 166.964842,167.542792 C169.160823,168.092567 179.608815,170.426654 186.796994,167.137825 C187.0091,167.041133 187.154081,166.838273 187.177631,166.605231 C187.26547,165.785478 186.953153,164.09443 186.828714,163.765547 C186.570076,163.070966 167.728555,164.298141 167.728555,164.298141 Z" id="Path" fill="#FBD56F"/><path d="M167.728555,164.298141 L166.776963,163.765547 C166.776963,163.765547 166.330447,165.635762 166.476846,166.970929 C166.504749,167.245388 166.699369,167.473456 166.964842,167.542792 C169.160823,168.092567 179.608815,170.426654 186.796994,167.137825 C187.0091,167.041133 187.154081,166.838273 187.177631,166.605231 C187.26547,165.785478 186.953153,164.09443 186.828714,163.765547 C186.570076,163.070966 167.728555,164.298141 167.728555,164.298141 Z" id="Path" fill="#000000" opacity="0.1"/><ellipse id="Oval" fill="#FBD56F" cx="176.578947" cy="163.79386" rx="10.1315789" ry="2.17105263"/><path d="M175.932743,160.927855 L174.978716,160.394508 C174.978716,160.394508 174.532202,162.267367 174.6786,163.589674 C174.706221,163.865162 174.900745,164.094419 175.166593,164.164804 C177.362565,164.715355 187.810507,167.050284 194.998652,163.759263 C195.210757,163.662435 195.355737,163.459288 195.379287,163.225917 C195.467126,162.405005 195.15725,160.711567 195.032812,160.382219 C194.771735,159.698945 175.932743,160.927855 175.932743,160.927855 Z" id="Path" fill="#FBD56F"/><path d="M175.932743,160.927855 L174.978716,160.394508 C174.978716,160.394508 174.532202,162.267367 174.6786,163.589674 C174.706221,163.865162 174.900745,164.094419 175.166593,164.164804 C177.362565,164.715355 187.810507,167.050284 194.998652,163.759263 C195.210757,163.662435 195.355737,163.459288 195.379287,163.225917 C195.467126,162.405005 195.15725,160.711567 195.032812,160.382219 C194.771735,159.698945 175.932743,160.927855 175.932743,160.927855 Z" id="Path" fill="#000000" opacity="0.1"/><ellipse id="Oval" fill="#FBD56F" cx="185.263158" cy="160.416667" rx="10.1315789" ry="2.17105263"/><path d="M170.140836,158.513908 L169.189244,157.981802 C169.189244,157.981802 168.742728,159.850304 168.889126,161.184248 C168.917708,161.458162 169.112041,161.685686 169.377122,161.755588 C171.573104,162.304859 182.021095,164.634356 189.209275,161.350991 C189.421381,161.254388 189.566362,161.051713 189.589912,160.818885 C189.677751,159.999882 189.365433,158.310384 189.240994,157.981802 C188.982357,157.273144 170.140836,158.513908 170.140836,158.513908 Z" id="Path" fill="#FBD56F"/><path d="M170.140836,158.513908 L169.189244,157.981802 C169.189244,157.981802 168.742728,159.850304 168.889126,161.184248 C168.917708,161.458162 169.112041,161.685686 169.377122,161.755588 C171.573104,162.304859 182.021095,164.634356 189.209275,161.350991 C189.421381,161.254388 189.566362,161.051713 189.589912,160.818885 C189.677751,159.999882 189.365433,158.310384 189.240994,157.981802 C188.982357,157.273144 170.140836,158.513908 170.140836,158.513908 Z" id="Path" fill="#000000" opacity="0.1"/><ellipse id="Oval" fill="#FBD56F" cx="179.473684" cy="158.004386" rx="10.1315789" ry="2.17105263"/><path d="M174.002925,153.689175 L173.048893,153.157191 C173.048893,153.157191 172.602377,155.025265 172.748775,156.358904 C172.777074,156.633396 172.971313,156.861733 173.236771,156.932564 C175.432753,157.479258 185.880745,159.810674 193.066484,156.525608 C193.278564,156.428503 193.424103,156.226391 193.449561,155.993624 C193.5374,155.174809 193.225083,153.485697 193.100644,153.157191 C192.842006,152.448695 174.002925,153.689175 174.002925,153.689175 Z" id="Path" fill="#FBD56F"/><path d="M174.002925,153.689175 L173.048893,153.157191 C173.048893,153.157191 172.602377,155.025265 172.748775,156.358904 C172.777074,156.633396 172.971313,156.861733 173.236771,156.932564 C175.432753,157.479258 185.880745,159.810674 193.066484,156.525608 C193.278564,156.428503 193.424103,156.226391 193.449561,155.993624 C193.5374,155.174809 193.225083,153.485697 193.100644,153.157191 C192.842006,152.448695 174.002925,153.689175 174.002925,153.689175 Z" id="Path" fill="#000000" opacity="0.1"/><ellipse id="Oval" fill="#FBD56F" cx="183.333333" cy="153.179825" rx="10.1315789" ry="2.17105263"/><path d="M175.930309,147.899701 L174.978718,147.367717 C174.978718,147.367717 174.532201,149.235791 174.6786,150.56943 C174.706898,150.843923 174.901137,151.072259 175.166596,151.143091 C177.362577,151.689784 187.810569,154.0212 194.998748,150.736135 C195.210854,150.639554 195.355835,150.436926 195.379385,150.20415 C195.467224,149.385335 195.154907,147.696223 195.030468,147.367717 C194.77183,146.659221 175.930309,147.899701 175.930309,147.899701 Z" id="Path" fill="#FBD56F"/><path d="M175.930309,147.899701 L174.978718,147.367717 C174.978718,147.367717 174.532201,149.235791 174.6786,150.56943 C174.706898,150.843923 174.901137,151.072259 175.166596,151.143091 C177.362577,151.689784 187.810569,154.0212 194.998748,150.736135 C195.210854,150.639554 195.355835,150.436926 195.379385,150.20415 C195.467224,149.385335 195.154907,147.696223 195.030468,147.367717 C194.77183,146.659221 175.930309,147.899701 175.930309,147.899701 Z" id="Path" fill="#000000" opacity="0.1"/><ellipse id="Oval" fill="#FBD56F" cx="185.263158" cy="147.390351" rx="10.1315789" ry="2.17105263"/><path d="M100.525624,77.0745565 C100.525624,71.7905192 104.733612,67.4984666 109.927887,67.4984666 C110.437037,67.4989822 110.945269,67.5408673 111.447368,67.6236924 C110.442559,67.251537 109.377322,67.0610308 108.303268,67.0614041 C103.111497,67.0614041 98.9035088,71.4443067 98.9035088,76.8511144 C98.9035088,80.9123587 101.279107,84.3941268 104.661018,85.877193 C104.82373,85.7372347 105.026494,85.570267 105.266808,85.3861114 C102.303295,83.6290035 100.50194,80.471129 100.525624,77.0745565 Z" id="Path" fill="#FBD56F"/><path d="M100.525624,77.0745565 C100.525624,71.7905192 104.733612,67.4984666 109.927887,67.4984666 C110.437037,67.4989822 110.945269,67.5408673 111.447368,67.6236924 C110.442559,67.251537 109.377322,67.0610308 108.303268,67.0614041 C103.111497,67.0614041 98.9035088,71.4443067 98.9035088,76.8511144 C98.9035088,80.9123587 101.279107,84.3941268 104.661018,85.877193 C104.82373,85.7372347 105.026494,85.570267 105.266808,85.3861114 C102.303295,83.6290035 100.50194,80.471129 100.525624,77.0745565 Z" id="Path" fill="#000000" opacity="0.1"/><path d="M117.577688,76.900753 C117.577033,77.9823666 117.411605,79.0573792 117.087262,80.0877193 C117.646347,79.9508862 118.229954,79.8389319 118.830725,79.7095625 C119.053713,78.8623197 119.166649,77.989151 119.166667,77.1122222 C119.166667,72.2907228 115.824417,68.2951975 111.447368,67.5438596 C115.020119,68.917166 117.577688,72.5842919 117.577688,76.900753 Z" id="Path" fill="#FBD56F"/><path d="M100.351111,77.0955373 C100.327484,80.4874253 102.098846,83.6409178 105.012891,85.3947368 C106.752141,84.017256 110.587347,81.4853384 116.744834,80.0196203 C117.070223,79.0045374 117.236185,77.9454435 117.236842,76.8798464 C117.236842,72.6273032 114.671018,69.0144798 111.086736,67.6688624 C110.593306,67.5861848 110.093849,67.5443743 109.59349,67.5438596 C104.486442,67.5512127 100.351111,71.8282663 100.351111,77.0955373 Z" id="Path" fill="#FBD56F"/><path d="M236.766619,186.752655 C235.360287,186.703463 235.308656,186.157437 233.50157,185.21542 C232.478783,184.684151 230.929852,183.139538 229.7743,181.897452 L229.503851,181.604763 L229.995576,181.604763 C229.995576,181.604763 229.543189,177.637467 229.946403,176.685611 C230.349617,175.733756 230.047207,170.138221 230.047207,170.138221 C230.047207,170.138221 230.293069,165.870857 229.8456,164.879648 C229.398131,163.888439 229.995576,157.540274 229.995576,157.540274 C229.995576,157.540274 230.39879,153.769745 230.4873,146.081111 C230.57581,138.392478 226.061781,138.14652 226.061781,138.14652 C226.061781,138.14652 225.459419,138.099788 224.544812,138.011243 L224.269446,137.984188 C224.861974,136.7544 225.20864,135.814842 225.20864,135.814842 C225.20864,135.814842 224.453843,128.623043 224.252236,127.383417 C224.050629,126.143791 222.848363,121.025414 222.848363,121.025414 C222.848363,121.025414 221.995222,118.84377 221.491204,117.306535 C220.987187,115.769301 219.48251,113.983649 219.48251,113.983649 C219.48251,113.983649 216.778027,108.626693 216.015854,107.83471 C215.66673,107.468233 215.175006,107.003373 214.749664,106.604922 L214.528388,106.403236 C214.643523,105.844715 214.704452,105.276373 214.710326,104.706129 C214.710326,104.706129 211.895205,101.926809 211.693598,101.233208 C211.491991,100.539608 208.831763,97.9595132 208.831763,97.9595132 C208.831763,97.9595132 207.322169,95.1826523 205.615886,95.1334607 C204.8081,95.0868206 203.997788,95.1106867 203.194144,95.2047884 C203.545727,93.9061325 203.961234,92.5459871 204.332485,91.3776887 C204.374282,91.2473312 204.416079,91.1317311 204.455416,90.9964545 C205.820707,90.072119 206.892405,88.7755088 207.543445,87.260359 C207.577866,87.179193 207.609828,87.098027 207.64179,87.0144014 L207.695879,87.0144014 C207.766736,87.0128405 207.837393,87.0062653 207.907321,86.9947248 C208.470345,86.8988014 208.947318,86.2568521 208.686704,85.764937 C208.721223,85.8227361 208.784146,85.8574983 208.851432,85.8559413 C209.038287,85.8559413 209.266939,85.5780093 209.311194,85.3394304 C209.311194,85.2976176 209.323487,85.2558048 209.328404,85.2139921 C209.333321,85.1721793 209.345614,85.1106899 209.35299,85.0590388 C209.360366,85.0073877 209.35299,84.9606558 209.35299,84.9114642 C209.35299,84.8622727 209.35299,84.8106216 209.35299,84.7614301 C209.35299,84.7122386 209.35299,84.6655067 209.35299,84.6187747 C209.35299,84.5720428 209.35299,84.5080938 209.35299,84.4539832 C209.35299,84.3998725 209.35299,84.367898 209.35299,84.3236257 C209.35299,84.2793533 209.35299,84.1908086 209.338239,84.1244 C209.338239,84.0973447 209.338239,84.0702894 209.338239,84.043234 C209.308853,83.7723524 209.254533,83.5047629 209.17597,83.2438719 C208.900604,82.3215311 208.317911,81.4065689 208.541645,80.4719302 L208.541645,80.4424153 C208.7285,79.7045425 209.357908,79.1880317 209.741452,78.5387037 C209.778332,78.4772143 209.810294,78.4132653 209.842256,78.3493164 C209.842256,78.3370185 209.854549,78.3247206 209.859466,78.3148823 C209.884053,78.2656908 209.903722,78.2164993 209.92339,78.1673078 L209.962728,78.0713843 C209.979939,78.0295715 209.992232,77.9852992 210.006984,77.9410268 C210.021735,77.8967544 210.034028,77.8623204 210.043863,77.8205076 C210.053697,77.7786948 210.063532,77.7418012 210.073366,77.702448 C210.083201,77.6630947 210.095494,77.6089841 210.105328,77.5597926 C210.115163,77.510601 210.105328,77.4909244 210.122539,77.4564904 C210.139749,77.4220563 210.137291,77.3482691 210.142208,77.2941584 C210.147125,77.2400477 210.142208,77.2351286 210.142208,77.2056137 C210.142208,77.1760988 210.142208,77.0850945 210.142208,77.0236051 L210.142208,76.9498178 C210.142208,76.8834093 210.142208,76.8145411 210.142208,76.7481326 C210.142208,76.728456 210.142208,76.7087794 210.142208,76.6891028 C210.142208,76.6177751 210.142208,76.5464474 210.122539,76.4751197 C210.122539,76.4751197 210.122539,76.4554431 210.122539,76.4456048 C210.037462,75.8221777 209.788917,75.2323953 209.402163,74.7361997 C208.510566,73.6732664 207.170454,73.0927206 205.785531,73.16945 C205.408434,73.2124367 205.028132,73.2198481 204.649648,73.1915862 C204.017782,73.0981223 203.484261,72.699671 202.982702,72.3110581 L198.773542,69.0668778 C198.303583,68.6600343 197.764923,68.3402109 197.182814,68.1224007 C196.587828,67.9403921 195.874828,68.0018815 195.434735,68.4372264 C194.645517,69.2144523 195.147076,70.5524615 194.832372,71.6076194 C194.557007,72.5225816 193.674362,73.1423947 192.762213,73.4498416 C191.850065,73.7572886 190.871533,73.8261567 189.93234,74.0499781 C189.653836,74.0945584 189.392822,74.2144842 189.177543,74.3967782 C188.935219,74.6925131 188.817106,75.0707999 188.848088,75.4519362 C188.841723,76.3866478 189.066382,77.3084443 189.502081,78.1353333 C189.679102,78.4698356 189.893002,78.8117166 190.082316,79.1560572 L190.12903,79.2421423 L190.190495,79.360202 C190.222457,79.4266105 190.254419,79.4905595 190.283923,79.5545084 L190.320802,79.638134 L190.37735,79.7783298 C190.37735,79.8078447 190.399478,79.8373596 190.409312,79.864415 C190.419147,79.8914703 190.443733,79.9750959 190.460943,80.0292065 C190.55985,80.3484842 190.569205,80.6888038 190.487988,81.0130368 C190.34293,81.5467647 189.927423,81.9575139 189.558629,82.3731822 C189.260067,82.6996715 189.047179,83.0951897 188.939057,83.5242636 C188.921016,83.6251251 188.921016,83.7283895 188.939057,83.829251 C188.939057,83.8415488 188.939057,83.8538467 188.939057,83.8661446 C188.944479,83.8886012 188.951044,83.9107662 188.958726,83.9325531 C188.964231,83.9485525 188.970802,83.9641647 188.978395,83.9792851 C188.985582,83.9969647 188.993791,84.0142108 189.002981,84.0309362 C189.021612,84.0577313 189.04304,84.0824664 189.066905,84.1047234 L189.103784,84.1317788 C189.123823,84.1468563 189.145224,84.1600311 189.167709,84.171132 L189.209505,84.1908086 L189.312767,84.2178639 L189.342271,84.2178639 C189.396292,84.2217006 189.450518,84.2217006 189.50454,84.2178639 L189.553712,84.2178639 C189.604884,84.2144922 189.655795,84.2079205 189.706147,84.1981873 L189.762695,84.1981873 C189.845792,84.18257 189.92789,84.1620375 190.008557,84.1366979 C190.290998,84.051986 190.565716,83.9433724 190.829737,83.8120339 C190.829737,83.8415488 190.829737,83.8735233 190.829737,83.9030382 C190.829737,83.9325531 190.829737,84.0088 190.829737,84.0604511 C190.843671,85.0334587 191.027558,85.9965362 191.373092,86.9061801 C191.911734,88.3234435 192.815007,89.5732431 193.991524,90.5291351 C193.976772,90.6127607 193.96202,90.6988458 193.94481,90.7873905 C193.698948,91.9753656 193.19493,93.1682598 192.882686,93.0772555 C192.576911,93.0081146 192.264356,92.9734644 191.950868,92.9739533 L191.677961,92.9739533 C191.393676,92.9416345 191.106646,92.9416345 190.822361,92.9739533 C190.695542,92.983346 190.568173,92.9657422 190.44865,92.9223022 C189.636825,92.6660842 188.773687,92.6178786 187.938398,92.7821064 C186.202611,93.1387449 183.559593,93.7905324 182.8343,94.5702179 C181.72792,95.7606525 180.129816,96.9018956 178.312895,101.8604 C178.312895,101.8604 177.408122,104.885678 176.704957,105.28413 C176.859832,105.20323 177.019067,105.130972 177.181929,105.067687 C177.088391,105.231385 176.959959,105.372464 176.80576,105.480896 C177.060003,105.350967 177.323852,105.240782 177.594978,105.151312 C177.046705,108.383195 177.860509,117.62628 177.860509,117.62628 C177.860509,117.62628 177.206516,119.220085 178.059657,120.164562 C178.568592,120.722886 178.843957,121.596035 178.986557,122.215848 L178.861168,122.407695 C178.408781,123.108674 177.803961,124.023637 177.408122,124.52785 C176.704957,125.420676 176.904105,128.249188 176.904105,128.249188 C176.904105,128.249188 176.754129,129.587197 176.25257,130.084031 C175.751012,130.580865 175.849356,132.415709 175.849356,132.415709 L174.563498,137.258613 C174.563498,137.258613 173.356314,138.348205 173.356314,138.84504 C173.356314,139.341874 172.402369,140.729075 172.402369,140.729075 C172.402369,140.729075 170.944407,143.109944 172.402369,142.763144 C172.934872,142.609017 173.434787,142.358963 173.877542,142.025271 L173.877542,142.062165 C173.877542,142.14825 173.877542,142.236794 173.877542,142.327799 C173.835746,144.920191 174.123404,148.570202 176.031294,148.570202 C178.98164,148.570202 186.63287,152.089855 186.63287,152.089855 C188.189177,153.280289 190.298674,152.884298 190.298674,152.884298 C190.298674,152.884298 186.564029,156.595797 186.672208,158.135492 C186.780387,159.675186 184.562711,162.20117 184.562711,162.20117 L177.727743,175.544368 C177.765911,176.47425 177.93136,177.394505 178.219468,178.279416 L178.121123,178.363042 C175.495315,180.763588 175.266663,185.513028 175.266663,185.513028 L174.664301,187.943089 L183.807914,191.962036 C183.807914,191.962036 195.665845,192.207993 197.72617,191.664427 C199.786494,191.120861 199.334108,188.835915 196.61979,188.390732 C193.905472,187.945549 193.253937,186.752655 192.349165,186.209088 C191.739427,185.840152 189.573381,183.461742 188.228515,181.954022 C188.208846,181.929427 188.189177,181.90975 188.169508,181.887614 L188.481753,180.165911 C189.084115,179.868302 189.988888,176.892216 189.988888,176.892216 C189.988888,176.892216 189.988888,175.701781 190.59125,175.354981 C191.193613,175.008181 192.449968,171.436877 192.449968,171.436877 C192.449968,171.436877 195.154452,166.923555 195.01431,166.328338 C194.874169,165.733121 196.981207,162.707843 196.981207,162.707843 C196.981207,162.707843 200.548667,159.234922 200.396233,158.615109 C200.243798,157.995296 203.260526,154.819984 203.260526,154.819984 C204.349969,153.988823 205.257805,152.94336 205.928131,151.747974 L206.798483,151.605318 C210.74457,150.95845 217.299255,149.790151 218.031924,149.463028 C219.0375,149.017845 218.835893,151.002722 218.435138,152.687531 C218.034382,154.372341 217.731972,162.459426 218.189276,163.509664 C218.646579,164.559903 218.435138,166.239793 218.435138,166.239793 L217.832776,175.315628 L218.233531,177.251314 C218.233531,177.251314 216.876372,178.340906 217.429562,178.985315 C217.982751,179.629723 217.481193,182.409044 217.481193,182.409044 C217.527906,182.391827 217.584455,182.37461 217.64592,182.357393 C217.599206,182.465614 217.552493,182.578755 217.510696,182.694355 C216.731313,184.907973 217.178782,188.557983 217.178782,188.557983 L217.178782,191.435687 C217.178782,191.435687 231.097038,191.681644 234.16048,191.681644 C237.223923,191.681644 241.447834,190.193601 241.698613,189.003166 C241.949393,187.812732 238.17295,186.804306 236.766619,186.752655 Z M197.182814,135.118782 L196.273124,135.195029 C196.573614,135.150405 196.876636,135.124938 197.180356,135.118782 L197.182814,135.118782 Z M202.741757,97.0470106 C202.869606,96.4714699 203.024499,95.856576 203.196602,95.2220055 L202.741757,97.0470106 Z M204.462792,136.508443 C203.593824,136.85105 202.627277,136.85105 201.758309,136.508443 C201.758309,136.508443 201.807481,133.037981 202.210695,131.589291 C202.613909,130.140601 203.16464,127.521153 203.16464,127.521153 C203.16464,127.521153 203.617027,123.900658 204.069413,122.26258 C204.521799,120.624503 206.282172,111.499477 207.184486,110.90426 C208.0868,110.309043 208.590818,111.351903 208.590818,111.351903 C208.590818,111.351903 208.726042,111.351903 208.952235,111.324847 C208.99649,111.418311 209.043204,111.521613 209.097294,111.627375 C210.169253,113.794261 213.313829,118.246093 213.313829,118.246093 C214.247125,118.821911 215.037396,119.602396 215.624934,120.52858 C216.480534,121.964972 216.731313,125.33951 216.731313,125.33951 C216.731313,125.33951 218.641662,132.828917 219.543976,133.869318 C219.996362,134.390748 219.789838,134.700655 219.48251,134.880204 C218.840487,135.233963 218.29575,135.740892 217.8967,136.355949 C217.768851,136.560094 217.631169,136.783915 217.493486,137.024954 C217.14682,136.943788 216.839492,136.860162 216.581337,136.778996 C214.100588,135.9452 205.815034,135.913225 204.460334,136.520741 L204.462792,136.508443 Z" id="Shape" fill="url(#linearGradient-1)" fill-rule="nonzero"/><path d="M217.230268,188.873532 L217.230268,191.768019 C217.230268,191.768019 230.844256,192.017544 233.842824,192.017544 C236.841392,192.017544 240.970567,190.520395 241.216351,189.322676 C241.462135,188.124957 237.775372,187.126858 236.39898,187.076953 C235.022588,187.027048 234.973432,186.478094 233.203785,185.5299 C232.205901,184.995917 230.689412,183.441378 229.558805,182.191258 C228.686271,181.225598 228.042316,180.444585 228.042316,180.444585 C228.042316,180.444585 220.720404,180.29487 218.606659,181.492589 C218.115091,181.767066 217.783282,182.308535 217.554703,182.989738 C216.792772,185.210508 217.230268,188.873532 217.230268,188.873532 Z" id="Path" fill="#434175"/><path d="M217.105263,182.850877 C218.648747,182.335859 227.679983,182.13887 229.166667,182.105643 C228.289968,181.187153 227.642939,180.444293 227.642939,180.444293 C227.642939,180.444293 220.286076,180.301891 218.162241,181.441103 C217.673265,181.692679 217.334934,182.207697 217.105263,182.850877 Z" id="Path" fill="#000000" opacity="0.1"/><path d="M178.026316,137.527672 L178.818813,138.020745 L179.115693,138.200716 L180.268863,138.900879 C186.437095,142.633436 203.256201,152.75621 204.178737,152.674853 C204.424092,152.65513 205.145437,152.544189 206.14158,152.381475 L206.992962,152.24095 C210.845041,151.59749 217.24636,150.436305 217.962798,150.110877 C218.944219,149.667112 218.747935,151.639401 218.355366,153.315847 C217.962798,154.992293 217.668371,163.029371 218.110011,164.064823 C218.551651,165.100275 218.355366,166.776721 218.355366,166.776721 L217.766514,175.799943 L218.159082,177.722925 C218.159082,177.722925 216.834163,178.807684 217.373945,179.448678 C217.913727,180.089672 217.423016,182.850877 217.423016,182.850877 C218.99329,182.25919 229.639257,182.061962 229.639257,182.061962 C229.639257,182.061962 229.197617,178.117383 229.590185,177.180546 C229.982754,176.243709 229.688328,170.671992 229.688328,170.671992 C229.688328,170.671992 229.933683,166.43157 229.492043,165.445425 C229.050404,164.459281 229.639257,158.150421 229.639257,158.150421 C229.639257,158.150421 230.031825,154.403072 230.129967,146.762916 C230.228109,139.122761 225.811714,138.87376 225.811714,138.87376 C225.811714,138.87376 225.222861,138.826918 224.339582,138.74063 C222.590199,138.572986 219.677831,138.247558 217.72971,137.823516 C217.330699,137.741866 216.936668,137.637328 216.549551,137.510415 C214.145069,136.686984 206.048345,136.654934 204.725879,137.246621 C203.876901,137.587657 202.929928,137.587657 202.080949,137.246621 L201.050457,135.570175 L191.209256,136.413329 L190.166496,136.502082 L180.477415,137.332909 L179.810049,137.389612 L178.026316,137.527672 Z" id="Path" fill="#565387"/><path d="M217.582156,144.969185 C220.394778,146.405372 223.079443,141.312976 224.342105,138.440602 C222.620732,138.268664 219.754997,137.934902 217.838068,137.5 C216.565749,139.714965 214.885419,143.591153 217.582156,144.969185 Z" id="Path" fill="#000000" opacity="0.1"/><path d="M208.903859,111.440542 C208.964128,111.77879 209.079787,112.104458 209.246057,112.404089 C210.282359,114.549947 213.320883,118.962108 213.320883,118.962108 C214.224647,119.534897 214.98812,120.308151 215.553665,121.223494 C216.378823,122.64915 216.621517,125.992068 216.621517,125.992068 C216.621517,125.992068 218.465988,133.412855 219.339685,134.445226 C219.776534,134.961412 219.582379,135.268666 219.279012,135.448102 C218.659067,135.797313 218.13322,136.295291 217.747615,136.898338 C216.473473,138.972914 214.442128,143.082737 217.301059,144.493645 C221.184157,146.410907 224.824561,136.362488 224.824561,136.362488 C224.824561,136.362488 224.096481,129.234207 223.902326,128.005193 C223.708171,126.776179 222.545668,121.712641 222.545668,121.712641 C222.545668,121.712641 221.72051,119.549576 221.235123,118.025599 C220.749735,116.501622 219.293574,114.731841 219.293574,114.731841 C219.293574,114.731841 216.672482,109.424959 215.944401,108.63839 C215.607057,108.272144 215.133805,107.812493 214.730933,107.424124 C214.245546,106.974305 213.866944,106.622807 213.866944,106.622807 C213.866944,106.622807 208.85532,110.263147 208.903859,111.440542 Z" id="Path" fill="#EE8E9E"/><path d="M175.614035,187.963021 L184.494036,191.961575 C184.494036,191.961575 196.006323,192.208399 198.006763,191.665385 C200.007202,191.122372 199.568081,188.851588 196.933356,188.407304 C194.29863,187.963021 193.664345,186.778264 192.786103,186.235251 C192.193289,185.869951 190.090388,183.502905 188.785223,182.002214 C188.155817,181.279018 187.711816,180.768092 187.711816,180.768092 C187.711816,180.768092 186.004124,176.17716 181.273816,177.213822 C180.409172,177.404674 179.61271,177.831489 178.970871,178.447943 C176.42153,180.834735 176.19953,185.56142 176.19953,185.56142 L175.614035,187.963021 Z" id="Path" fill="#434175"/><path d="M178.991228,137.936624 L180.154621,138.638958 C186.377536,142.383092 203.345746,152.537261 204.27646,152.455651 C204.523991,152.435867 205.25173,152.324582 206.256704,152.161363 L207.115634,152.020402 L207.147813,151.963523 C207.648136,151.09427 208.029436,150.161868 208.281502,149.191281 C209.323605,145.236942 204.187349,142.209981 204.187349,142.209981 L203.098215,141.364212 C201.860563,139.28194 192.949468,137.313426 192.949468,137.313426 L191.800927,136.541848 L191.189527,136.131328 L191.026157,136.022516 L189.632561,135.087719 L182.654678,135.582321 L180.580373,136.912799 L180.362547,137.05376 L179.592727,137.548362 L178.991228,137.936624 Z" id="Path" fill="#000000" opacity="0.1"/><path d="M178.508772,178.468607 C180.435359,185.183084 188.489246,182.99143 188.489246,182.99143 L188.640351,182.13912 C187.9906,181.395886 187.532249,180.870802 187.532249,180.870802 C187.532249,180.870802 185.769359,176.152658 180.886155,177.218045 C179.995438,177.40912 179.17342,177.841522 178.508772,178.468607 Z" id="Path" fill="#000000" opacity="0.1"/><path d="M176.764324,149.137498 C179.680472,149.137498 187.190787,152.61316 187.190787,152.61316 C188.723,153.788032 190.798901,153.396408 190.798901,153.396408 C190.798901,153.396408 187.14136,157.067883 187.240213,158.585425 C187.339065,160.102968 185.166783,162.599571 185.166783,162.599571 L178.444816,175.765479 C178.939078,185.113053 188.624147,182.520992 188.624147,182.520992 L189.019557,180.318107 C189.612672,180.024389 190.502344,177.08721 190.502344,177.08721 C190.502344,177.08721 190.502344,175.912338 191.095458,175.569667 C191.688573,175.226996 192.924229,171.70238 192.924229,171.70238 C192.924229,171.70238 195.593245,167.247658 195.444966,166.660222 C195.296688,166.072786 197.372589,163.089101 197.372589,163.089101 C197.372589,163.089101 200.881851,159.662391 200.733572,159.050479 C200.585294,158.438567 203.550867,155.305575 203.550867,155.305575 C204.623751,154.481539 205.515909,153.449682 206.172928,152.272937 C206.677347,151.410938 207.062214,150.485563 207.317146,149.521779 C208.15492,146.369206 204.984228,143.818755 203.716445,142.947392 C203.410002,142.734446 203.222183,142.621854 203.222183,142.621854 L202.134806,141.784758 C201.573818,140.847308 199.416363,139.931887 197.251495,139.214726 C195.684683,138.698272 194.103044,138.282171 193.092278,138.032511 C192.405253,137.875861 191.995016,137.77306 191.995016,137.77306 L190.848327,137.009393 L190.445504,136.7426 L190.077278,136.497835 L188.673573,135.570175 L185.574549,135.788016 L181.706947,136.059705 L179.638459,137.386332 L178.649935,138.017825 L174.787275,140.465475 C174.787275,140.465475 174.685952,141.40782 174.653825,142.66836 C174.653825,142.766266 174.653825,142.864172 174.653825,142.966973 C174.60687,145.537005 174.883657,149.137498 176.764324,149.137498 Z" id="Path" fill="#565387"/><path d="M191.535088,94.0023158 L192.574224,97.6691114 C192.574224,97.6691114 194.405083,103.976 194.603014,104.416015 C194.800945,104.856031 199.600765,109.305076 199.798695,109.402857 C199.996626,109.500639 202.609312,110.964912 202.609312,110.964912 C202.609312,110.964912 202.817139,102.897962 202.609312,100.553657 C202.591932,100.037931 202.635105,99.5219523 202.737967,99.0160477 C203.052182,97.1777608 203.851327,94.4814438 204.514395,92.4035929 C205.068601,90.6655318 205.526316,89.3601526 205.526316,89.3601526 C205.526316,89.3601526 193.949843,88.8712465 194.345704,89.9957305 C194.494152,90.4210788 194.447143,91.1299926 194.30117,91.8437955 C194.053756,93.0147255 193.558929,94.1929892 193.257085,94.100097 C192.955768,94.0335013 192.647945,93.9998901 192.339181,93.9998713 C191.923527,93.9876486 191.535088,94.0023158 191.535088,94.0023158 Z" id="Path" fill="#EE8E9E"/><path d="M194.429825,91.7229635 C197.301748,94.0070123 201.406554,94.223989 204.525993,92.2566386 C205.073847,90.5996822 205.526316,89.3552171 205.526316,89.3552171 C205.526316,89.3552171 194.082524,88.8891253 194.473849,89.9611364 C194.620595,90.3666363 194.574125,91.0424694 194.429825,91.7229635 Z" id="Path" fill="#000000" opacity="0.1"/><path d="M207.932491,84.9852732 C207.932974,85.8986639 207.790463,86.806272 207.510342,87.6738076 C207.439874,87.89773 207.358433,88.1179027 207.266325,88.3334943 C205.921448,91.5830177 202.770383,93.6676023 199.313567,93.5946356 C195.856751,93.521669 192.792905,91.3058998 191.580933,88.0024062 C191.245696,87.0886067 191.067392,86.1226866 191.053857,85.1470831 C191.053857,85.094806 191.053857,85.0400396 191.053857,84.9877625 C191.001997,81.8760848 192.599548,78.9778662 195.232758,77.4065542 C197.865968,75.8352422 201.12526,75.8352422 203.75847,77.4065542 C206.39168,78.9778662 207.989231,81.8760848 207.937371,84.9877625 L207.932491,84.9852732 Z" id="Path" fill="#EE8E9E"/><path d="M191.535088,94.0854342 L192.564356,97.7342621 C192.564356,97.7342621 194.377828,104.010246 194.573879,104.448106 C194.769931,104.885965 199.524169,109.313209 199.72022,109.410512 C199.916271,109.507814 202.504146,110.964912 202.504146,110.964912 C202.504146,110.964912 202.709999,102.937491 202.504146,100.604673 C202.486931,100.091474 202.529694,99.5780239 202.631579,99.0745983 L201.965005,101.772298 L202.014018,107.172564 L202.40612,107.46447 L201.52389,108.778048 L201.52389,107.805027 C201.52389,107.805027 198.387073,104.788663 197.896945,103.523736 C197.406818,102.258809 195.642358,99.9673448 195.642358,99.9673448 C195.642358,99.9673448 193.632834,96.6152882 193.583822,96.0314757 C193.547062,95.5765885 192.701592,94.5232935 192.331545,94.0854342 C191.919838,94.0708389 191.535088,94.0854342 191.535088,94.0854342 Z" id="Path" fill="#000000" opacity="0.1"/><path d="M208.903858,111.446958 C208.96386,111.785829 209.079006,112.112097 209.244537,112.412281 C210.302816,112.301466 213.900481,111.616874 214.692982,107.425601 C214.20975,106.974953 213.832829,106.622807 213.832829,106.622807 C213.832829,106.622807 208.855535,110.267393 208.903858,111.446958 Z" id="Path" fill="#000000" opacity="0.1"/><path d="M174.649123,142.807018 C175.640025,142.123259 176.601199,141.193252 177.16849,140.935049 C178.010757,140.552527 179.298929,139.30933 179.298929,139.30933 C179.298929,139.30933 179.625927,139.094161 180.126332,138.812051 C181.045393,138.290865 182.554041,137.537774 183.708442,137.444534 C184.741457,137.360858 188.1675,137.14808 190.892479,136.985508 L194.420089,136.77512 C194.420089,136.77512 197.64052,135.675369 199.027782,136.392598 C200.02133,136.872944 201.068596,137.241931 202.149123,137.49235 C202.149123,137.49235 202.149123,137.387156 202.149123,137.207849 L201.108676,135.582129 L190.119576,136.485838 L188.710018,135.570175 L181.726638,136.048328 L179.653176,137.344122 L177.864599,137.49235 L178.664752,137.970502 L174.792804,140.361266 C174.792804,140.361266 174.671418,141.429938 174.649123,142.807018 Z" id="Path" fill="#000000" opacity="0.1"/><path d="M173.359838,143.253209 C173.880298,143.097257 174.367847,142.84698 174.798324,142.514782 C175.780225,141.813277 176.725305,140.855783 177.287444,140.592411 C178.12206,140.198584 179.398532,138.918644 179.398532,138.918644 C179.398532,138.918644 182.000571,137.14642 183.767994,136.998734 C184.258945,136.959351 185.255575,136.88797 186.468223,136.809205 C187.680872,136.730439 189.168452,136.634444 190.474381,136.563062 L192.556013,136.432607 L194.370076,136.319382 C194.370076,136.319382 197.561256,135.187127 198.935918,135.925554 C199.920441,136.420097 200.958195,136.799989 202.028908,137.057808 C202.028908,137.057808 202.078003,133.611817 202.470763,132.184192 C202.863524,130.756567 203.40357,128.14992 203.40357,128.14992 C203.40357,128.14992 203.845425,124.556243 204.287281,122.931704 C204.729137,121.307165 206.44501,112.24913 207.328721,111.658389 C208.212432,111.067647 208.703383,112.101445 208.703383,112.101445 C208.703383,112.101445 214.594792,112.002988 214.692982,105.507294 C214.692982,105.507294 211.943658,102.7505 211.747278,102.061302 C211.550898,101.372104 208.948859,98.8122243 208.948859,98.8122243 C208.948859,98.8122243 207.476006,96.0554311 205.806774,96.0062026 C205.018171,95.9606627 204.227093,95.9853738 203.442846,96.0800453 L202.028908,101.864388 L202.078003,107.328746 L202.470763,107.624117 L201.587052,108.953285 L201.587052,107.968716 C201.587052,107.968716 198.444967,104.916552 197.954016,103.636613 C197.463066,102.356673 195.695643,100.038013 195.695643,100.038013 C195.695643,100.038013 193.682745,96.6461725 193.63365,96.0554311 C193.584555,95.4646896 192.209892,93.8819949 192.209892,93.8819949 C191.932621,93.8496698 191.652548,93.8496698 191.375276,93.8819949 C191.251069,93.8913238 191.126315,93.8736934 191.009518,93.8303051 C190.216328,93.5754771 189.371369,93.5280309 188.554764,93.6924654 C186.858529,94.0444488 184.276128,94.691803 183.569159,95.4646896 C182.489067,96.6461725 180.918025,97.7784269 179.150602,102.701272 L188.672592,106.147264 L187.842885,107.702883 L180.26506,122.14651 C180.26506,122.14651 180.019585,122.557568 179.673465,123.094158 C179.231609,123.790741 178.640013,124.699006 178.252162,125.198674 C177.564831,126.084786 177.761211,128.890808 177.761211,128.890808 C177.761211,128.890808 177.613926,130.219976 177.122976,130.712261 C176.632025,131.204545 176.730215,133.025998 176.730215,133.025998 L175.453743,137.801158 C175.453743,137.801158 174.275461,138.884184 174.275461,139.376468 C174.275461,139.868753 173.342655,141.24715 173.342655,141.24715 C173.342655,141.24715 171.928716,143.607654 173.359838,143.253209 Z" id="Path" fill="#434175"/><path d="M223.377193,146.666667 C223.377193,146.666667 220.414551,147.719192 219.61212,149.226388 C218.809689,150.733584 223.377193,146.666667 223.377193,146.666667 Z" id="Path" fill="#000000" opacity="0.1"/><path d="M221.929825,143.77193 C221.834806,143.916473 217.829767,147.990178 218.081567,148.973071 C218.333367,149.955963 221.929825,143.77193 221.929825,143.77193 Z" id="Path" fill="#000000" opacity="0.1"/><path d="M199.254386,146.666667 C199.254386,146.666667 194.836563,148.907747 194.450356,149.894227 C194.06415,150.880706 199.254386,146.666667 199.254386,146.666667 Z" id="Path" fill="#000000" opacity="0.1"/><path d="M198.77193,149.561404 C198.77193,149.561404 194.554846,151.44879 193.989261,151.920636 C193.423676,152.392483 198.77193,149.561404 198.77193,149.561404 Z" id="Path" fill="#000000" opacity="0.1"/><path d="M196.842105,153.208979 C196.842105,153.208979 195.082435,154.556402 194.110047,153.497712 C193.13766,152.439023 196.842105,153.208979 196.842105,153.208979 Z" id="Path" fill="#000000" opacity="0.1"/><path d="M204.078947,117.236842 C203.978802,117.384056 197.719687,128.425123 196.067281,129.259337 C194.414874,130.093551 204.078947,117.236842 204.078947,117.236842 Z" id="Path" fill="#000000" opacity="0.1"/><path d="M203.596491,121.578947 C203.596491,121.821095 197.452922,134.458781 196.445779,134.60407 C195.438637,134.749358 203.596491,121.578947 203.596491,121.578947 Z" id="Path" fill="#000000" opacity="0.1"/><path d="M180.921053,129.780702 C180.921053,129.780702 177.92343,136.159288 176.747792,136.521679 C175.572154,136.88407 180.921053,129.780702 180.921053,129.780702 Z" id="Path" fill="#000000" opacity="0.1"/><path d="M180.438596,126.885965 C180.438596,126.885965 179.312717,128.815789 178.62776,128.815789 C177.942804,128.815789 180.438596,126.885965 180.438596,126.885965 Z" id="Path" fill="#000000" opacity="0.1"/><path d="M207.932491,84.954114 C207.932974,85.8639961 207.790463,86.7681179 207.510342,87.632321 C207.439874,87.8553833 207.358433,88.0747102 207.266325,88.2894737 C206.834559,88.2218985 206.427996,88.0396932 206.087725,87.7612717 C205.725427,87.5118413 205.422748,87.1830593 205.201944,86.7991011 C205.035476,86.3900333 204.891288,85.9719645 204.770035,85.5467913 C204.373501,84.5695985 203.487315,83.8872782 202.454316,83.7637998 C202.734936,84.2597641 202.288385,84.9169167 201.739347,85.0037105 C201.19031,85.0905042 200.655913,84.7557283 200.275247,84.3415982 C199.894581,83.927468 199.623723,83.4240643 199.247937,83.0099342 C198.872151,82.595804 198.335315,82.2659878 197.783837,82.3478219 C197.295804,82.4222165 196.922458,82.7991493 196.51495,83.0793691 C196.107442,83.359589 195.538884,83.5480554 195.148457,83.247997 C194.928842,83.081849 194.821474,82.7991493 194.61162,82.6181224 C194.072343,82.1593554 193.232926,82.6330013 192.835179,83.2256786 C192.222697,84.1432125 191.859112,84.6986925 191.053857,85.1128226 C191.053857,85.0607464 191.053857,85.0061903 191.053857,84.954114 C191.001997,81.8543892 192.599548,78.9673034 195.232758,77.4020273 C197.865968,75.8367511 201.12526,75.8367511 203.75847,77.4020273 C206.39168,78.9673034 207.989231,81.8543892 207.937371,84.954114 L207.932491,84.954114 Z" id="Path" fill="#000000" opacity="0.1"/><path d="M192.83739,83.2660094 C193.235723,82.6761138 194.076377,82.2066553 194.616449,82.6638243 C194.826612,82.840793 194.934138,83.1209934 195.154076,83.2881305 C195.545078,83.5855362 196.116918,83.3987359 196.522583,83.1209934 C196.928247,82.8432509 197.30703,82.4696504 197.793339,82.3959134 C198.343185,82.309887 198.878369,82.6417032 199.259596,83.0521722 C199.640823,83.4626412 199.909636,83.9615946 200.288419,84.3720636 C200.667203,84.7825326 201.202386,85.109433 201.754677,85.0258645 C202.306967,84.942296 202.751731,84.288495 202.470699,83.7969154 C203.50471,83.9191359 204.391541,84.5956337 204.787385,85.5641442 C204.909918,85.9852033 205.054298,86.3995173 205.219931,86.8053828 C205.442054,87.1853161 205.746012,87.5103503 206.10946,87.7565894 C206.556668,88.0884057 207.101627,88.3661482 207.64903,88.2702901 C208.196432,88.1744321 208.660747,87.5329207 208.406596,87.041341 C208.580103,87.3092519 208.956442,86.9356514 209.012649,86.6210404 C209.137008,85.9302261 209.098505,85.219703 208.900236,84.5465744 C208.631422,83.6322362 208.064469,82.7277297 208.281964,81.7986442 C208.455471,81.0612747 209.07863,80.5377424 209.457414,79.8863994 C210.129448,78.7311872 209.946166,77.1827113 209.134837,76.1208993 C208.273913,75.0703302 206.967335,74.4944831 205.61582,74.5699655 C205.249023,74.6108573 204.879246,74.6174399 204.51124,74.5896287 C203.897856,74.4986865 203.377334,74.0980491 202.888582,73.7170748 L198.790394,70.5070598 C198.335404,70.1026459 197.811298,69.7845312 197.243492,69.5681427 C196.666765,69.3887161 195.972736,69.4501636 195.532859,69.8802957 C194.765518,70.6520758 195.251827,71.9793408 194.943913,73.0239475 C194.677543,73.9284541 193.819782,74.5429286 192.932697,74.847708 C192.045611,75.1524874 191.094988,75.2213085 190.181021,75.4425194 C189.910004,75.4877872 189.656471,75.6067869 189.447892,75.7866251 C189.211476,76.0813602 189.096849,76.456273 189.12776,76.8336898 C189.121418,77.7581608 189.339523,78.6702172 189.763138,79.4906777 C190.237227,80.4074738 190.985019,81.3488488 190.723536,82.3492134 C190.581798,82.8776615 190.176133,83.2832147 189.819344,83.6961416 C189.047116,84.5908165 188.785633,85.90825 190.242115,85.4510809 C191.652166,85.0086592 192.045611,84.4359689 192.83739,83.2660094 Z" id="Path" fill="#434175"/><g id="Group" opacity="0.1" transform="translate(189.122807, 76.228070)" fill="#000000"><path d="M20.2086291,9.36851056 C20.149388,9.68358396 19.7717258,10.0577336 19.5940024,9.78942893 C19.8408405,10.2817311 19.3817217,10.9192624 18.8288046,11.0201844 C18.2758874,11.1211063 17.727907,10.8355711 17.273725,10.5057286 C16.9072385,10.2581399 16.6010601,9.93178552 16.377703,9.55066237 C16.170359,9.16420516 16.1037128,8.71621017 15.9407997,8.30759936 C15.5388194,7.33828473 14.6428425,6.66134624 13.5983068,6.537773 C13.8846389,7.03007519 13.430457,7.68483709 12.8750714,7.76852846 C12.3196858,7.85221984 11.7791106,7.52237737 11.3940432,7.11130505 C11.0089759,6.70023272 10.7349857,6.20300752 10.3548552,5.78947368 C9.9747246,5.37593985 9.43168095,5.05102041 8.87382701,5.13225027 C8.38015096,5.20855711 8.00248878,5.58024526 7.59026928,5.85839599 C7.17804978,6.13654672 6.60291718,6.32608306 6.20797634,6.02824024 C5.98582211,5.8608575 5.87968176,5.58024526 5.66740106,5.40301647 C5.11942064,4.94517544 4.27029784,5.41532402 3.86795186,6.00362513 C3.07066503,7.17530433 2.67325581,7.7537594 1.25640555,8.19929288 C0.792350061,8.34452202 0.501081191,8.31252238 0.343104855,8.17221625 C0.0345573235,8.88359291 0.175254998,9.50881668 1.25640555,9.16912818 C2.67325581,8.7235947 3.07066503,8.14760115 3.86795186,6.97592195 C4.27029784,6.38515933 5.11942064,5.91501074 5.66740106,6.37285177 C5.87968176,6.55008056 5.98582211,6.8306928 6.20797634,6.99807555 C6.60538556,7.29591837 7.18051816,7.10884354 7.59026928,6.8306928 C8.0000204,6.55254207 8.38261934,6.17839241 8.87382701,6.10454708 C9.42921257,6.0183942 9.96978784,6.35069817 10.3548552,6.7617705 C10.7399225,7.17284282 11.0114443,7.67252954 11.3940432,8.08360186 C11.7766422,8.49467419 12.3172175,8.82205514 12.8750714,8.73836377 C13.4329253,8.6546724 13.8846389,7.99991049 13.5983068,7.50760831 C14.6436571,7.62916365 15.5405469,8.30679188 15.9407997,9.27743466 C16.0634547,9.69946841 16.2093097,10.1144503 16.377703,10.5204977 C16.6013556,10.9007278 16.907513,11.2262186 17.273725,11.4731024 C17.727907,11.8054064 18.2758874,12.0835571 18.8288046,11.9875582 C19.3817217,11.8915593 19.850714,11.2491049 19.5940024,10.7568027 C19.7717258,11.0251074 20.149388,10.6509578 20.2086291,10.3358844 C20.2850723,9.91108502 20.3000349,9.47754932 20.25306,9.04851414 C20.244832,9.15517962 20.2300218,9.26184509 20.2086291,9.36851056 Z" id="Path"/><path d="M1.72786618,5.12486574 C1.72786618,5.11009667 1.72786618,5.10025063 1.74020808,5.08548156 C2.00926153,4.08610813 1.24653203,3.14334945 0.770134639,2.22520587 C0.434559601,1.57730424 0.226750786,0.871216462 0.157976336,0.145229144 C0.139521153,0.27407636 0.129626066,0.403999104 0.128355773,0.53414787 C0.123139776,1.45984088 0.34337364,2.37295728 0.770134639,3.19504117 C1.10583435,3.82272646 1.5624847,4.4627193 1.72786618,5.12486574 Z" id="Path"/><path d="M20.655406,2.62397064 C20.272807,3.27627103 19.6433701,3.80303437 19.4681151,4.53902614 C19.3977232,4.84935904 19.3977232,5.17145192 19.4681151,5.48178482 C19.6507752,4.76056212 20.2678703,4.2387218 20.6455324,3.59380594 C21.004341,2.96414948 21.1383528,2.23173946 21.025663,1.51629073 C20.9767372,1.90626136 20.8509007,2.28272036 20.655406,2.62397064 Z" id="Path"/></g><path d="M179.473684,123.002465 C179.538656,123.274815 179.588953,123.550444 179.624359,123.828167 C179.624359,123.828167 183.527086,132.947859 184.021103,133.487647 C184.171777,133.655252 184.744836,134.473559 185.4661,135.530951 L186.293577,136.748553 C187.775625,138.966857 189.45281,141.47354 189.45281,141.47354 L193.118409,144.667897 C193.118409,144.667897 201.069599,145.301346 203.596491,142.728114 C203.290201,142.513678 203.102475,142.400298 203.102475,142.400298 L202.01564,141.557342 C201.454931,140.613331 199.298551,139.691503 197.13476,138.969321 C195.133995,138.98411 193.496332,139.146786 193.496332,139.146786 L192.977615,137.778832 L192.434197,136.351723 L189.660297,129.100335 C189.660297,129.100335 187.876898,119.933811 187.284079,119.487686 C186.69126,119.04156 186.841935,117.663747 186.841935,117.663747 C186.841935,117.663747 187.9263,113.769392 187.531087,113.22714 C187.135874,112.684888 188.173308,108.694406 188.173308,108.694406 C188.071598,108.303913 187.911732,107.930862 187.699053,107.587719 L180.073914,122.051059 C180.073914,122.051059 179.814555,122.465142 179.473684,123.002465 Z" id="Path" fill="#000000" opacity="0.1"/><path d="M188.13043,108.856677 C188.13043,108.856677 187.105593,112.828073 187.496007,113.367732 C187.886421,113.90739 186.812782,117.78312 186.812782,117.78312 C186.812782,117.78312 186.668817,119.156797 187.251998,119.598335 C187.83518,120.039874 189.599364,129.16501 189.599364,129.16501 L193.379063,139.173224 C193.379063,139.173224 205.208616,137.995787 203.991011,141.724337 C202.773407,145.452887 193.010609,144.667929 193.010609,144.667929 L189.399277,141.479038 C189.399277,141.479038 184.519098,134.070997 184.03108,133.531339 C183.543062,132.99168 179.687721,123.918057 179.687721,123.918057 C179.687721,123.918057 179.492514,122.102842 178.662884,121.170704 C177.833253,120.238567 178.467676,118.661292 178.467676,118.661292 C178.467676,118.661292 177.442839,106.798615 178.516478,105.375879 C179.590118,103.953142 187.007989,104.588468 188.13043,108.856677 Z" id="Path" fill="#EE8E9E"/><path d="M182.290946,101.041382 L179.142878,102.946379 C179.142878,102.946379 178.24343,106.0044 177.54386,106.405452 C177.54386,106.405452 183.839995,102.896247 188.584582,110.964912 C188.584582,110.964912 188.434674,109.914657 189.084275,109.413342 C189.733877,108.912027 189.583969,106.756373 189.583969,106.756373 C189.756816,106.415768 189.907051,106.064082 190.033693,105.703611 C190.483417,104.600718 188.144852,98.2841492 182.290946,101.041382 Z" id="Path" fill="#000000" opacity="0.1"/><path d="M181.807786,101.041382 L178.660185,102.946379 C178.660185,102.946379 177.76087,106.0044 177.061404,106.405452 C177.061404,106.405452 183.356606,102.896247 188.10049,110.964912 C188.10049,110.964912 187.950605,109.914657 188.60011,109.413342 C189.249615,108.912027 189.099729,106.756373 189.099729,106.756373 C189.27255,106.415768 189.422763,106.064082 189.549386,105.703611 C190.009036,104.600718 187.650833,98.2841492 181.807786,101.041382 Z" id="Path" fill="#434175"/><ellipse id="Oval" fill="#FBD56F" cx="154.385965" cy="177.302632" rx="9.16666667" ry="9.89035088"/><ellipse id="Oval" fill="#000000" opacity="0.1" cx="154.385965" cy="177.302632" rx="9.16666667" ry="9.89035088"/><ellipse id="Oval" fill="#FBD56F" cx="155.833333" cy="177.54386" rx="9.16666667" ry="9.64912281"/><ellipse id="Oval" fill="#0079FF" cx="21.9517544" cy="180.921053" rx="11.3377193" ry="1.92982456"/><path d="M26.8644155,177.637425 C27.3528233,177.170151 27.8046006,176.627104 27.9462389,175.950188 C28.0878772,175.273273 27.8094847,174.480171 27.1916488,174.235168 C26.4981096,173.959855 25.7557297,174.457438 25.1940606,174.960073 C24.6323916,175.462708 23.9901353,176.03354 23.2550814,175.927456 C24.0242643,175.206685 24.3710325,174.121106 24.1684041,173.068246 C24.13938,172.855298 24.0549734,172.654504 23.9242002,172.487312 C23.5408,172.062977 22.8423768,172.234731 22.3808314,172.580766 C20.9156078,173.646655 20.5077872,175.705185 20.5004611,177.556599 C20.3514967,176.887261 20.4760407,176.192665 20.4735987,175.505647 C20.4711567,174.818628 20.2880037,174.060887 19.7409869,173.69212 C19.3922983,173.499117 19.0007297,173.404182 18.6054386,173.416807 C17.946088,173.391549 17.2134763,173.459746 16.764141,173.957329 C16.204914,174.578677 16.3489943,175.616782 16.8349602,176.298749 C17.320926,176.980716 18.0559798,177.405051 18.7421928,177.877376 C19.287794,178.214329 19.7534288,178.673496 20.1048508,179.221104 C20.1467309,179.301416 20.1802917,179.386079 20.2049744,179.473684 L24.3344628,179.473684 C25.253967,178.982375 26.1049987,178.36469 26.8644155,177.637425 Z" id="Path" fill="#0079FF"/><path d="M104.210526,73.6136744 L113.55252,68.9912281 L117.001568,72.1125958 L117.821948,74.3435344 L118.684211,78.0925816 L117.92542,79.7347665 L111.951176,80.8100935 C111.951176,80.8100935 108.768197,80.6276285 108.275476,80.8709152 C107.782755,81.1142018 105.772452,81.5350877 105.772452,81.5350877 L104.210526,77.7373831 L104.210526,73.6136744 Z" id="Path" fill="#FBD56F"/></g></g></g></g></g></svg>