<svg viewBox="0 0 128 38" version="1.1" xmlns="http://www.w3.org/2000/svg" xmlns:xlink="http://www.w3.org/1999/xlink"><!-- Generator: Sketch 52.4 (67378) - http://www.bohemiancoding.com/sketch --><title>Kikalogo</title><desc>Created with Sketch.</desc><g id="About/Team" stroke="none" stroke-width="1" fill="none" fill-rule="evenodd"><g id="Landing" transform="translate(-116.000000, -44.000000)"><g id="header" transform="translate(116.000000, 44.000000)"><g id="Kikalogo"><path d="M22.1666667,0.791666667 L38,0.791666667 C38,9.53617521 30.9111752,16.625 22.1666667,16.625 L22.1666667,0.791666667 Z" id="Path" fill="#0076FF"/><path d="M22.1666667,21.375 C30.9111752,21.375 38,28.4638248 38,37.2083333 L22.1666667,37.2083333 L22.1666667,21.375 Z" id="Path" fill="#0076FF"/><rect id="Rectangle" fill="#0076FF" x="0" y="20.5833333" width="17.4166667" height="17.4166667" rx="8.70833333"/><rect id="Rectangle" fill="#0076FF" x="0" y="0" width="17.4166667" height="17.4166667" rx="8.70833333"/><polygon id="Path" fill="#000440" points="51.6404167 6.07208333 57.4947917 6.07208333 57.4947917 15.9679167 65.751875 6.07208333 72.8333333 6.07208333 62.6841667 17.776875 73.03125 30.875 65.9260417 30.875 57.4947917 19.76 57.4947917 30.875 51.6404167 30.875"/><path d="M75.7110417,7.706875 C75.7110417,6.00083333 76.9658333,4.78166667 78.743125,4.78166667 C80.5204167,4.78166667 81.77125,6.00083333 81.77125,7.706875 C81.712295,9.33775581 80.3730919,10.6294226 78.7411458,10.6294226 C77.1091998,10.6294226 75.7699967,9.33775581 75.7110417,7.706875 Z M81.355625,13.03875 L81.355625,30.875 L76.130625,30.875 L76.130625,13.03875 L81.355625,13.03875 Z" id="Shape" fill="#000440" fill-rule="nonzero"/><polygon id="Path" fill="#000440" points="86.3352083 6.07208333 92.185625 6.07208333 92.185625 15.9679167 100.442708 6.07208333 107.51625 6.07208333 97.375 17.776875 107.726042 30.875 100.601042 30.875 92.1697917 19.76 92.1697917 30.875 86.3352083 30.875"/><path d="M122.110625,13.03875 L127.335625,13.03875 L127.335625,30.875 L122.110625,30.875 L122.110625,28.4010417 C120.747872,30.4064029 118.470876,31.5954346 116.046458,31.5677083 C111.03125,31.5677083 107.512292,27.609375 107.512292,21.9529167 C107.512292,16.2964583 111.03125,12.338125 116.046458,12.338125 C118.470876,12.3103987 120.747872,13.4994304 122.110625,15.5047917 L122.110625,13.03875 Z M122.075,21.956875 C122.075,19.0633333 120.123542,16.9377083 117.408125,16.9377083 C114.692708,16.9377083 112.737292,19.0633333 112.737292,21.956875 C112.737292,24.8504167 114.68875,26.9720833 117.408125,26.9720833 C120.1275,26.9720833 122.075,24.8464583 122.075,21.956875 Z" id="Shape" fill="#000440" fill-rule="nonzero"/></g></g></g></g></svg>