<svg xmlns="http://www.w3.org/2000/svg" xmlns:xlink="http://www.w3.org/1999/xlink" version="1.1" width="128" height="38" style=""><rect id="backgroundrect" width="100%" height="100%" x="0" y="0" fill="none" stroke="none"/><!-- Generator: Sketch 52.4 (67378) - http://www.bohemiancoding.com/sketch --><title>Kikalogo</title><desc>Created with Sketch.</desc><g class="currentLayer" style=""><title>Layer 1</title><g id="About/Team" stroke="none" stroke-width="1" fill="#ffffff" fill-rule="evenodd" class="selected" fill-opacity="1"><g id="Landing" fill="#ffffff" fill-opacity="1"><g id="header" fill="#ffffff" fill-opacity="1"><g id="Kikalogo" fill="#ffffff" fill-opacity="1"><path d="M22.166666700000007,0.7916666670000012 L38,0.7916666670000012 C38,9.536175209999996 30.911175200000002,16.625 22.166666700000007,16.625 L22.166666700000007,0.7916666670000012 z" id="Path" fill="#ffffff" fill-opacity="1"/><path d="M22.166666700000007,21.375 C30.911175200000002,21.375 38,28.4638248 38,37.2083333 L22.166666700000007,37.2083333 L22.166666700000007,21.375 z" id="Path" fill="#ffffff" fill-opacity="1"/><rect id="Rectangle" fill="#ffffff" x="0" y="20.58333396911621" width="17.41666603088379" height="17.41666603088379" rx="8.708333015441895" fill-opacity="1"/><rect id="Rectangle" fill="#ffffff" x="0" y="0" width="17.41666603088379" height="17.41666603088379" rx="8.708333015441895" fill-opacity="1"/><polygon id="Path" fill="#ffffff" points="51.640411376953125,6.07208251953125 57.49479293823242,6.07208251953125 57.49479293823242,15.967916488647461 65.75187683105469,6.07208251953125 72.83333587646484,6.07208251953125 62.684165954589844,17.776874542236328 73.03125,30.875 65.92604064941406,30.875 57.49479293823242,19.760000228881836 57.49479293823242,30.875 51.640411376953125,30.875 " fill-opacity="1"/><path d="M75.7110417,7.706874999999997 C75.7110417,6.000833329999999 76.9658333,4.78166667 78.743125,4.78166667 C80.5204167,4.78166667 81.77125,6.000833329999999 81.77125,7.706874999999997 C81.712295,9.337755810000004 80.3730919,10.629422599999998 78.7411458,10.629422599999998 C77.1091998,10.629422599999998 75.76999670000001,9.337755810000004 75.7110417,7.706874999999997 zM81.355625,13.03875 L81.355625,30.875 L76.130625,30.875 L76.130625,13.03875 L81.355625,13.03875 z" id="Shape" fill="#ffffff" fill-rule="nonzero" fill-opacity="1"/><polygon id="Path" fill="#ffffff" points="86.335205078125,6.07208251953125 92.18562316894531,6.07208251953125 92.18562316894531,15.967916488647461 100.44271087646484,6.07208251953125 107.51625061035156,6.07208251953125 97.375,17.776874542236328 107.72604370117188,30.875 100.60104370117188,30.875 92.16979217529297,19.760000228881836 92.16979217529297,30.875 86.335205078125,30.875 " fill-opacity="1"/><path d="M122.110625,13.03875 L127.335625,13.03875 L127.335625,30.875 L122.110625,30.875 L122.110625,28.4010417 C120.747872,30.4064029 118.470876,31.5954346 116.046458,31.5677083 C111.03125,31.5677083 107.512292,27.609375 107.512292,21.9529167 C107.512292,16.2964583 111.03125,12.338124999999998 116.046458,12.338124999999998 C118.470876,12.3103987 120.747872,13.499430400000001 122.110625,15.504791699999998 L122.110625,13.03875 zM122.075,21.956875 C122.075,19.0633333 120.123542,16.9377083 117.408125,16.9377083 C114.692708,16.9377083 112.737292,19.0633333 112.737292,21.956875 C112.737292,24.8504167 114.68875,26.9720833 117.408125,26.9720833 C120.1275,26.9720833 122.075,24.8464583 122.075,21.956875 z" id="Shape" fill="#ffffff" fill-rule="nonzero" fill-opacity="1"/></g></g></g></g></g></svg>